<?xml version="1.0" encoding="UTF-8"?>
<!-- Generator: visioncortex VTracer 0.6.12 -->
<svg version="1.1" xmlns="http://www.w3.org/2000/svg" width="1024" height="1024">
<path d="M0,0 L33,3 L112,13 L185,22 L218,27 L218,37 L215,62 L213,78 L213,85 L216,85 L215,94 L209,108 L206,126 L212,127 L222,133 L227,132 L247,124 L282,110 L323,95 L350,86 L352,86 L351,90 L342,102 L329,118 L322,126 L307,142 L287,162 L285,165 L313,160 L349,155 L378,151 L421,147 L422,150 L411,158 L390,174 L370,188 L355,198 L340,208 L322,219 L314,224 L380,225 L470,227 L468,231 L459,241 L450,252 L439,264 L432,272 L428,277 L402,287 L385,293 L358,303 L355,304 L368,308 L407,319 L466,335 L497,343 L494,346 L451,360 L420,370 L373,383 L346,390 L372,404 L388,413 L411,425 L433,437 L458,450 L467,455 L467,457 L449,460 L413,464 L350,470 L313,472 L325,481 L338,491 L351,501 L364,511 L377,521 L390,531 L405,542 L408,545 L403,547 L378,551 L339,556 L317,558 L296,559 L293,560 L308,573 L321,585 L334,597 L340,602 L340,605 L322,606 L277,606 L254,605 L256,617 L259,624 L269,641 L279,659 L284,672 L286,680 L286,688 L283,699 L277,706 L269,711 L257,714 L243,714 L227,711 L210,704 L195,695 L183,684 L177,677 L173,668 L150,645 L136,634 L122,626 L99,620 L74,616 L67,616 L52,620 L36,628 L25,636 L13,647 L3,653 L0,654 L-19,654 L-34,649 L-47,642 L-60,632 L-69,623 L-76,613 L-82,601 L-85,590 L-85,576 L-79,564 L-70,557 L-60,554 L-44,555 L-38,556 L-27,542 L-18,530 L-18,484 L-13,452 L-4,418 L-5,413 L-17,395 L-30,373 L-42,350 L-53,325 L-60,306 L-66,286 L-71,264 L-76,227 L-76,188 L-73,162 L-68,143 L-61,127 L-52,115 L-44,109 L-36,105 L-28,103 L-18,103 L-17,102 L-14,79 L-5,23 L-1,2 Z " fill="#0F3465" transform="translate(356,118)"/>
<path d="M0,0 L2,0 L2,2 L-15,13 L-37,27 L-41,28 L-41,30 L-55,37 L-75,49 L-94,61 L-110,71 L-118,76 L-113,77 L-72,79 L-32,79 L-18,78 L17,70 L27,68 L1,67 L1,66 L44,66 L83,67 L81,71 L72,81 L63,92 L52,104 L45,112 L41,116 L40,114 L25,108 L14,111 L-12,119 L-31,124 L-60,131 L-78,136 L-102,141 L-103,142 L-80,148 L-63,152 L-41,158 L-14,165 L9,170 L16,171 L22,173 L50,179 L72,184 L72,186 L62,189 L34,196 L24,198 L19,197 L7,186 L-2,186 L-11,182 L-27,176 L-39,171 L-53,165 L-69,159 L-87,153 L-87,155 L-80,156 L-79,158 L-73,161 L-70,164 L-50,173 L-36,179 L-27,184 L-27,185 L-44,186 L-19,188 L-20,190 L-26,191 L-46,192 L-52,193 L-24,198 L-12,199 L-9,202 L-26,205 L-66,209 L-90,211 L-113,212 L-123,213 L-93,226 L-65,238 L-45,247 L-34,252 L-26,255 L7,271 L26,280 L33,283 L47,290 L47,291 L-7,291 L-45,288 L-87,282 L-103,279 L-130,273 L-143,269 L-137,276 L-121,292 L-124,292 L-145,278 L-162,266 L-160,260 L-151,241 L-144,222 L-137,199 L-132,180 L-127,148 L-125,127 L-125,97 L-127,70 L-131,48 L-136,28 L-136,26 L-121,23 L-93,18 L-74,15 L-68,13 L-23,4 Z " fill="#113C79" transform="translate(743,278)"/>
<path d="M0,0 L11,0 L40,4 L65,7 L105,12 L149,18 L179,22 L191,23 L196,26 L196,37 L192,69 L188,95 L186,113 L173,114 L161,120 L154,127 L149,137 L148,140 L147,157 L138,157 L90,150 L34,143 L3,139 L0,138 L0,117 L-6,105 L-14,98 L-17,97 L-16,84 L-10,47 L-5,12 L-3,2 Z " fill="#FBF8F6" transform="translate(366,130)"/>
<path d="M0,0 L10,0 L14,4 L9,7 L8,9 L8,16 L10,18 L16,18 L19,13 L21,13 L22,16 L22,24 L17,37 L14,41 L37,43 L53,47 L64,53 L69,58 L70,63 L64,68 L48,76 L35,81 L35,89 L39,93 L49,97 L55,98 L70,98 L85,95 L93,93 L90,88 L95,89 L105,95 L109,99 L109,101 L102,99 L97,98 L94,109 L86,125 L80,133 L69,141 L58,145 L44,145 L34,141 L26,134 L20,125 L14,102 L12,93 L4,87 L-3,79 L-3,77 L1,79 L9,85 L18,88 L25,88 L26,87 L27,79 L23,78 L13,70 L4,59 L0,52 L0,49 L-7,49 L-13,44 L-17,36 L-17,23 L-14,14 L-10,8 L-2,1 Z " fill="#072246" transform="translate(365,333)"/>
<path d="M0,0 L11,1 L19,6 L23,11 L26,17 L26,30 L23,38 L15,47 L7,51 L2,53 L-14,55 L-6,59 L0,61 L0,93 L2,108 L-5,122 L-11,138 L-19,146 L-24,158 L-26,165 L-28,163 L-33,138 L-35,124 L-36,111 L-36,63 L-33,46 L-29,31 L-24,20 L-19,12 L-11,4 L-5,1 Z " fill="#113D7C" transform="translate(329,233)"/>
<path d="M0,0 L18,0 L25,3 L34,9 L40,16 L45,27 L45,50 L38,64 L32,71 L22,77 L16,78 L16,80 L-1,80 L-13,74 L-20,68 L-26,58 L-29,52 L-30,47 L-30,35 L-26,22 L-19,12 L-10,4 Z " fill="#F5F7F9" transform="translate(498,343)"/>
<path d="M0,0 L11,0 L18,1 L21,2 L35,9 L48,20 L55,27 L63,38 L69,50 L71,58 L71,66 L67,72 L62,76 L54,78 L43,77 L30,72 L16,64 L11,60 L11,58 L7,56 L2,51 L1,48 L-1,48 L-6,40 L-11,29 L-12,23 L-12,14 L-9,7 L-5,5 L-3,1 Z " fill="#04295C" transform="translate(294,683)"/>
<path d="M0,0 L11,0 L40,4 L65,7 L105,12 L149,18 L179,22 L191,23 L196,26 L196,37 L195,44 L190,45 L169,42 L132,37 L100,33 L78,30 L57,27 L45,25 L21,23 L-5,20 L-6,22 L-4,8 L-2,1 Z " fill="#04DAF5" transform="translate(366,130)"/>
<path d="M0,0 L9,0 L15,5 L17,9 L17,17 L12,22 L-4,34 L-22,48 L-39,61 L-54,72 L-63,72 L-68,68 L-79,54 L-89,42 L-94,36 L-94,27 L-87,20 L-85,19 L-78,19 L-73,22 L-62,35 L-57,41 L-53,40 L-38,28 L-24,18 L-12,9 Z " fill="#06DBF3" transform="translate(491,180)"/>
<path d="M0,0 L4,1 L8,0 L7,14 L10,8 L11,10 L10,13 L16,11 L27,10 L36,10 L52,13 L68,21 L70,21 L74,30 L75,35 L75,43 L71,49 L64,53 L52,55 L36,53 L20,48 L8,42 L-3,34 L-10,25 L-12,21 L-10,11 L-6,5 L-3,4 L-3,2 Z " fill="#04295C" transform="translate(555,766)"/>
<path d="M0,0 L43,0 L82,1 L80,5 L71,15 L62,26 L51,38 L44,46 L40,50 L39,48 L27,43 L28,40 L35,37 L38,35 L28,38 L24,40 L17,39 L-12,25 L-32,15 L-32,14 L-10,10 L16,4 L26,2 L0,1 Z " fill="#07D4F3" transform="translate(744,344)"/>
<path d="M0,0 L8,0 L15,2 L15,4 L9,9 L9,16 L13,20 L21,20 L24,16 L25,11 L29,15 L31,22 L31,33 L27,44 L22,51 L13,57 L10,58 L-2,58 L-12,53 L-18,44 L-21,34 L-21,24 L-17,14 L-9,5 Z " fill="#07244A" transform="translate(496,353)"/>
<path d="M0,0 L2,0 L1,3 L-4,7 L-9,12 L-21,25 L-33,36 L-36,38 L-46,47 L-53,53 L-60,60 L-74,71 L-77,72 L-82,60 L-82,58 L-81,57 L-84,56 L-90,45 L-93,41 L-93,39 L-79,33 L-62,26 L-48,21 L-40,17 Z " fill="#0F3A74" transform="translate(680,223)"/>
<path d="M0,0 L9,2 L29,8 L35,9 L56,9 L66,6 L70,6 L68,15 L62,27 L53,37 L42,43 L38,44 L29,44 L19,41 L13,36 L6,26 L4,22 Z " fill="#872448" transform="translate(383,428)"/>
<path d="M0,0 L12,0 L20,4 L26,11 L28,18 L28,32 L25,42 L20,52 L13,52 L19,40 L21,34 L21,23 L19,23 L18,27 L16,29 L10,29 L7,26 L7,19 L12,14 L13,13 L10,11 L0,11 L-9,18 L-14,26 L-16,33 L-16,46 L-12,54 L-7,58 L0,59 L2,65 L-3,67 L-13,67 L-22,63 L-28,54 L-29,52 L-29,33 L-21,18 L-10,6 L-4,2 Z " fill="#F4F6F8" transform="translate(365,323)"/>
<path d="M0,0 L12,2 L27,5 L33,7 L61,13 L83,18 L83,20 L73,23 L45,30 L35,32 L30,31 L18,20 L6,7 Z " fill="#00CFF2" transform="translate(732,444)"/>
<path d="M0,0 L6,2 L35,16 L54,25 L61,28 L75,35 L75,36 L21,36 L12,22 L2,4 Z " fill="#00D0F3" transform="translate(715,533)"/>
<path d="M0,0 L12,7 L37,23 L55,35 L60,38 L60,40 L41,41 L18,41 L13,30 L5,12 L0,2 Z " fill="#01CFF1" transform="translate(678,618)"/>
<path d="M0,0 L11,0 L11,4 L7,9 L15,4 L21,3 L31,3 L37,7 L35,11 L28,19 L17,25 L13,26 L4,26 L-6,23 L-12,18 L-14,15 L-13,10 L-9,5 Z " fill="#F8858D" transform="translate(408,446)"/>
<path d="M0,0 L2,0 L-1,13 L-4,21 L-8,37 L-15,69 L-18,93 L-18,131 L-14,150 L-12,154 L-13,158 L-18,148 L-23,133 L-26,117 L-26,89 L-22,62 L-18,46 L-12,26 L-3,5 Z " fill="#A7B6CD" transform="translate(380,512)"/>
<path d="M0,0 L2,0 L2,2 L-15,13 L-37,27 L-41,29 L-46,28 L-70,18 L-73,16 L-73,14 L-23,4 Z " fill="#01CCEE" transform="translate(743,278)"/>
<path d="M0,0 L2,2 L7,14 L14,26 L22,34 L31,45 L37,50 L33,53 L29,56 L27,56 L27,58 L24,58 L24,61 L22,61 L15,47 L7,36 L-4,26 L-14,20 L-8,11 Z " fill="#133D78" transform="translate(342,662)"/>
<path d="M0,0 L2,0 L1,3 L-4,7 L-9,12 L-21,25 L-33,36 L-40,35 L-48,32 L-60,27 L-57,24 L-47,20 Z " fill="#01CBEE" transform="translate(680,223)"/>
<path d="M0,0 L14,1 L29,3 L29,5 L15,15 L9,20 L6,23 L-2,30 L-9,37 L-10,37 L-11,31 L-11,12 L-3,5 Z " fill="#F5F2EF" transform="translate(361,278)"/>
<path d="M0,0 L4,2 L2,9 L-4,28 L-7,40 L-11,60 L-13,75 L-13,103 L-9,123 L-2,141 L1,143 L6,157 L6,159 L2,157 L-6,148 L-13,135 L-17,118 L-18,111 L-18,90 L-16,66 L-13,50 L-8,28 L-2,10 Z " fill="#1D4784" transform="translate(368,526)"/>
<path d="M0,0 L6,1 L24,7 L36,12 L52,19 L72,27 L82,30 L95,37 L94,39 L85,38 L73,36 L51,35 L39,33 L39,32 L59,31 L40,22 L24,15 L16,11 L11,7 L7,5 L7,3 L0,2 Z " fill="#072D5A" transform="translate(656,431)"/>
<path d="M0,0 L20,0 L26,4 L29,4 L38,11 L40,11 L43,19 L43,22 L38,21 L27,15 L11,12 L2,12 L-15,14 L-14,9 L-10,4 L-5,1 Z " fill="#0C3570" transform="translate(580,765)"/>
<path d="M0,0 L4,1 L4,15 L5,30 L6,35 L-1,45 L-5,46 L-7,34 L-7,15 L-6,1 Z " fill="#072B59" transform="translate(335,292)"/>
<path d="M0,0 L5,2 L22,15 L31,22 L31,23 L11,23 L7,22 L1,4 Z " fill="#01C7EC" transform="translate(639,689)"/>
<path d="M0,0 L10,1 L27,4 L45,11 L61,16 L69,18 L69,19 L58,18 L42,16 L14,7 L-1,3 L-3,1 Z " fill="#083161" transform="translate(665,363)"/>
<path d="M0,0 L4,2 L2,9 L-4,28 L-7,40 L-11,60 L-13,75 L-14,101 L-15,101 L-16,83 L-16,66 L-13,50 L-8,28 L-2,10 Z " fill="#23508D" transform="translate(368,526)"/>
<path d="M0,0 L10,0 L20,5 L29,15 L28,17 L12,9 L10,8 L-9,8 L-18,9 L-14,5 L-5,1 Z " fill="#042248" transform="translate(507,314)"/>
<path d="M0,0 L2,0 L1,5 L-1,11 L-1,28 L3,43 L11,59 L16,67 L16,71 L14,71 L9,64 L6,55 L-2,39 L-5,32 L-7,24 L-7,14 L-3,4 Z " fill="#9FAFC9" transform="translate(325,386)"/>
<path d="M0,0 L25,0 L42,4 L51,9 L51,10 L42,9 L26,7 L3,4 L-2,3 L-2,1 Z " fill="#A9B2C2" transform="translate(375,380)"/>
<path d="M0,0 L1,2 L3,3 L-1,13 L-1,23 L2,35 L12,54 L14,58 L13,62 L7,54 L2,46 L-3,32 L-4,28 L-4,11 L-2,1 Z " fill="#25508A" transform="translate(320,387)"/>
<path d="M0,0 L1,0 L0,7 L-7,10 L-16,13 L-31,16 L-36,16 L-34,14 L-21,9 L-3,2 Z " fill="#093265" transform="translate(669,295)"/>
<path d="M0,0 L4,2 L2,9 L-4,28 L-8,38 L-10,39 L-8,28 L-2,10 Z " fill="#1D4B85" transform="translate(368,526)"/>
<path d="M0,0 L1,0 L5,15 L13,31 L18,39 L18,43 L16,43 L11,36 L8,27 L0,11 L-2,6 L0,6 Z " fill="#97ADCF" transform="translate(323,414)"/>
<path d="M0,0 L7,0 L19,4 L23,6 L24,11 L17,9 L9,6 L-1,4 L2,2 Z " fill="#0B284A" transform="translate(401,377)"/>
<path d="M0,0 L15,0 L23,1 L25,5 L-1,4 Z " fill="#031F44" transform="translate(379,375)"/>
<path d="M0,0 L1,2 L3,3 L-1,13 L-2,27 L-4,28 L-4,11 L-2,1 Z " fill="#174882" transform="translate(320,387)"/>
<path d="M0,0 L1,4 L-2,14 L-4,26 L-6,26 L-8,28 L-7,19 L-4,6 Z " fill="#204F8A" transform="translate(361,560)"/>
<path d="M0,0 L3,1 L3,3 L7,4 L-9,4 L-21,2 L-21,1 Z " fill="#0A3063" transform="translate(716,462)"/>
<path d="M0,0 L17,0 L17,3 L2,3 L0,2 Z " fill="#1D4D89" transform="translate(712,381)"/>
<path d="M0,0 L4,2 L2,9 L-1,15 L-3,15 L-1,4 Z " fill="#17457E" transform="translate(368,526)"/>
<path d="M0,0 L1,0 L5,16 L6,22 L3,19 L-2,7 L-2,5 L0,5 Z " fill="#A6B5CD" transform="translate(362,648)"/>
<path d="M0,0 L3,1 L-4,6 L-9,8 L-15,7 L-12,5 Z " fill="#027098" transform="translate(780,378)"/>
<path d="M0,0 L10,5 L8,7 L1,6 L-6,3 L-6,1 L0,2 Z " fill="#0C3469" transform="translate(696,550)"/>
<path d="M0,0 L4,1 L-12,5 L-21,6 L-19,4 L-7,1 Z " fill="#16437F" transform="translate(653,307)"/>
<path d="M0,0 L11,1 L15,6 L13,8 L2,2 Z " fill="#093166" transform="translate(637,513)"/>
<path d="M0,0 L2,0 L2,2 L-12,9 L-15,8 L-3,1 Z " fill="#0C3569" transform="translate(656,323)"/>
<path d="M0,0 L1,0 L1,8 L0,11 L-3,12 L-5,11 L-5,9 L-3,9 L-2,1 Z " fill="#1F3352" transform="translate(570,204)"/>
<path d="M0,0 L10,1 L8,5 L-1,3 L-3,1 Z " fill="#093469" transform="translate(665,363)"/>
<path d="M0,0 L3,0 L7,7 L7,11 L5,11 L0,4 Z " fill="#6386B5" transform="translate(334,446)"/>
<path d="M0,0 L2,1 L2,11 L1,16 L0,16 L-1,11 L-1,3 Z " fill="#2B5993" transform="translate(354,585)"/>
<path d="M0,0 L3,1 L3,5 L-2,7 L-5,1 Z " fill="#476080" transform="translate(483,395)"/>
<path d="M0,0 L2,0 L-1,13 L-5,11 L-3,5 Z " fill="#9DAFCA" transform="translate(380,512)"/>
<path d="M0,0 L7,1 L11,3 L11,6 L2,3 L0,2 Z " fill="#052F64" transform="translate(635,507)"/>
<path d="M0,0 L2,1 L2,3 L-21,3 L-21,2 Z " fill="#9FA6B1" transform="translate(776,265)"/>
<path d="M0,0 L5,0 L2,3 L-8,4 L-8,2 Z " fill="#384B67" transform="translate(727,498)"/>
<path d="M0,0 L2,0 L0,4 L-6,11 L-8,11 L-6,6 Z " fill="#183356" transform="translate(487,358)"/>
<path d="M0,0 L4,4 L3,6 L-2,10 L-4,9 L-1,5 Z " fill="#2B4467" transform="translate(521,364)"/>
<path d="M0,0 L1,0 L1,12 L-8,12 L-8,11 L-1,10 Z " fill="#D1D2D7" transform="translate(512,275)"/>
<path d="M0,0 L6,1 L8,2 L8,4 L-2,5 L-2,4 L3,4 Z " fill="#707D93" transform="translate(815,571)"/>
<path d="M0,0 L16,0 L16,1 L7,1 L7,3 L0,1 Z " fill="#052753" transform="translate(618,490)"/>
<path d="M0,0 L1,0 L3,11 L0,11 L-2,6 L0,6 Z " fill="#8AA1C0" transform="translate(323,414)"/>
<path d="M0,0 L5,0 L7,5 L-1,4 L2,2 Z " fill="#173151" transform="translate(401,377)"/>
<path d="M0,0 L3,4 L4,10 L0,7 Z " fill="#3D6595" transform="translate(330,439)"/>
<path d="M0,0 L2,3 L2,9 L-1,8 L-1,2 Z " fill="#B7C0D2" transform="translate(360,644)"/>
<path d="M0,0 L6,1 L9,2 L9,5 L7,5 L7,3 L0,2 Z " fill="#073063" transform="translate(656,431)"/>
<path d="M0,0 L2,0 L2,2 L-4,5 L-5,2 L-7,1 Z " fill="#00ABD9" transform="translate(743,278)"/>
<path d="M0,0 L1,0 L3,11 L-1,9 L-2,5 L0,5 Z " fill="#9CABC3" transform="translate(362,648)"/>
<path d="M0,0 L7,3 L7,4 L-1,4 Z " fill="#00BDDE" transform="translate(783,565)"/>
<path d="M0,0 L6,2 L7,4 L-2,3 L0,2 Z " fill="#939FB3" transform="translate(419,386)"/>
<path d="M0,0 L2,4 L2,9 L-1,9 Z " fill="#2A568F" transform="translate(318,410)"/>
<path d="M0,0 L8,0 L8,2 L0,3 Z " fill="#3B5E87" transform="translate(363,373)"/>
<path d="M0,0 L9,1 L8,4 L2,2 Z " fill="#07C5E6" transform="translate(712,358)"/>
<path d="M0,0 L8,0 L5,2 L3,3 L-3,3 L0,2 Z " fill="#02264B" transform="translate(757,346)"/>
<path d="M0,0 L4,2 L-2,6 L-4,6 L-2,2 Z " fill="#9A174D" transform="translate(419,449)"/>
<path d="M0,0 L1,0 L1,8 L-3,9 Z " fill="#325893" transform="translate(541,395)"/>
<path d="M0,0 L4,2 L2,3 L2,8 L0,5 L-1,1 Z " fill="#052853" transform="translate(633,685)"/>
<path d="M0,0 L2,0 L3,6 L-1,11 Z " fill="#818D9E" transform="translate(352,532)"/>
<path d="M0,0 L6,2 L4,6 L0,2 Z " fill="#04B3D9" transform="translate(715,533)"/>
<path d="M0,0 L2,2 L2,8 L-1,5 L-2,2 L0,2 Z " fill="#2C578C" transform="translate(328,436)"/>
</svg>
