<?xml version="1.0" encoding="UTF-8"?>
<!-- Generator: visioncortex VTracer 0.6.12 -->
<svg version="1.1" xmlns="http://www.w3.org/2000/svg" width="1024" height="1024">
<path d="M0,0 L3,1 L-12,29 L-27,57 L-42,85 L-51,101 L-47,100 L-2,82 L33,69 L76,54 L113,42 L115,42 L113,46 L104,55 L97,63 L88,72 L81,80 L65,96 L60,101 L55,107 L50,111 L43,119 L33,128 L28,133 L14,147 L27,147 L51,141 L96,128 L126,119 L141,114 L172,104 L174,104 L173,111 L158,154 L155,161 L144,168 L130,177 L105,193 L82,207 L182,207 L231,205 L231,208 L219,215 L198,228 L170,245 L142,261 L117,275 L99,285 L97,285 L97,287 L107,289 L149,300 L209,315 L238,321 L237,324 L194,340 L150,356 L103,372 L99,374 L121,385 L149,398 L176,410 L215,427 L223,431 L223,433 L196,441 L160,452 L98,469 L81,474 L84,477 L100,487 L110,494 L139,513 L162,528 L168,532 L183,534 L231,538 L231,566 L227,571 L194,584 L170,595 L143,607 L116,619 L83,634 L80,635 L59,634 L-81,621 L-211,609 L-373,594 L-481,584 L-536,579 L-536,549 L-532,546 L-476,526 L-436,512 L-394,497 L-365,487 L-358,486 L-314,490 L-301,485 L-282,478 L-263,474 L-252,473 L-252,468 L-270,474 L-284,477 L-293,478 L-316,478 L-333,475 L-346,471 L-362,463 L-374,454 L-381,448 L-392,433 L-397,422 L-399,410 L-428,415 L-437,415 L-441,406 L-449,382 L-463,337 L-462,332 L-437,326 L-370,313 L-350,310 L-343,310 L-340,315 L-332,341 L-316,389 L-317,394 L-334,398 L-321,404 L-313,406 L-299,407 L-288,405 L-280,401 L-271,394 L-261,384 L-258,381 L-264,379 L-280,369 L-291,360 L-303,348 L-313,333 L-319,320 L-322,307 L-322,293 L-317,283 L-315,283 L-315,269 L-311,249 L-305,230 L-297,211 L-289,195 L-277,175 L-265,158 L-255,145 L-247,135 L-236,122 L-227,112 L-220,104 L-211,94 L-193,76 L-187,69 L-179,62 L-165,48 L-157,41 L-149,33 L-141,26 L-128,15 L-125,13 L-122,13 L-123,21 L-138,53 L-150,75 L-157,89 L-137,77 L-117,65 L-91,50 L-73,40 L-51,28 L-33,18 L-7,4 Z " fill="#0F2B4C" transform="translate(664,166)"/>
<path d="M0,0 L2,0 L-1,9 L-6,14 L-19,35 L-22,44 L-23,46 L-25,46 L-26,50 L-40,72 L-48,83 L-57,96 L-66,106 L-72,113 L-75,116 L-59,108 L-30,95 L-7,85 L3,81 L15,76 L37,67 L63,56 L79,50 L87,46 L101,41 L103,42 L72,73 L64,80 L51,93 L43,100 L36,107 L28,114 L11,130 L4,137 L-3,143 L-6,146 L6,144 L60,131 L95,122 L106,116 L125,106 L127,106 L127,103 L147,97 L162,92 L193,82 L195,82 L194,89 L179,132 L177,137 L176,134 L158,134 L144,142 L120,155 L97,168 L72,182 L48,196 L41,200 L91,200 L119,199 L132,198 L182,196 L200,195 L215,195 L211,198 L187,211 L169,220 L167,220 L167,222 L158,225 L133,236 L99,250 L87,255 L50,270 L40,274 L88,277 L130,283 L145,285 L151,287 L192,296 L223,303 L224,305 L186,314 L170,317 L160,320 L142,323 L118,327 L108,329 L94,331 L56,334 L54,335 L69,343 L81,351 L93,359 L103,366 L100,367 L73,358 L57,352 L47,348 L35,344 L14,337 L1,334 L-5,334 L8,346 L17,359 L27,380 L34,395 L40,411 L43,421 L46,430 L50,444 L56,470 L59,488 L59,494 L41,493 L25,491 L16,488 L11,484 L8,478 L8,464 L13,442 L15,434 L15,411 L13,401 L11,408 L5,424 L-2,436 L-9,445 L-20,457 L-28,464 L-43,475 L-56,483 L-68,489 L-77,491 L-83,491 L-82,483 L-76,474 L-78,474 L-84,479 L-88,486 L-90,491 L-98,491 L-105,489 L-105,480 L-102,472 L-99,467 L-104,471 L-109,479 L-111,486 L-116,485 L-119,484 L-121,481 L-120,471 L-115,461 L-106,451 L-92,446 L-72,438 L-62,432 L-56,424 L-51,410 L-51,383 L-52,379 L-54,379 L-58,399 L-66,419 L-73,429 L-81,434 L-104,441 L-116,447 L-122,454 L-127,465 L-136,465 L-156,463 L-191,457 L-201,455 L-212,453 L-215,447 L-215,430 L-211,414 L-210,409 L-217,417 L-227,426 L-241,434 L-252,439 L-266,442 L-295,442 L-311,438 L-323,434 L-336,427 L-346,419 L-352,412 L-343,411 L-351,408 L-356,403 L-362,395 L-364,389 L-364,382 L-356,370 L-352,366 L-345,366 L-335,374 L-328,384 L-324,393 L-324,384 L-319,386 L-303,394 L-292,397 L-265,397 L-249,391 L-233,383 L-212,373 L-203,370 L-182,366 L-168,364 L-154,363 L-151,362 L-179,361 L-203,357 L-224,349 L-242,339 L-253,330 L-263,321 L-274,307 L-282,291 L-285,279 L-285,266 L-281,238 L-276,223 L-251,228 L-237,229 L-237,227 L-246,225 L-259,222 L-272,218 L-272,212 L-265,196 L-255,193 L-238,193 L-229,197 L-221,202 L-223,196 L-227,194 L-232,190 L-239,187 L-250,187 L-260,190 L-258,184 L-249,168 L-242,158 L-230,141 L-219,127 L-205,110 L-193,96 L-179,81 L-167,68 L-153,53 L-137,37 L-129,31 L-131,37 L-144,61 L-155,79 L-167,96 L-179,112 L-180,114 L-170,105 L-154,93 L-140,83 L-125,73 L-110,63 L-95,54 L-74,41 L-50,27 L-32,17 L-6,1 Z " fill="#13437B" transform="translate(643,188)"/>
<path d="M0,0 L45,4 L46,6 L19,18 L-1,27 L-9,32 L-22,42 L-38,52 L-43,56 L-46,56 L-46,58 L-29,58 L-13,60 L15,62 L31,64 L73,68 L90,69 L97,74 L106,76 L120,76 L128,74 L147,76 L191,81 L219,84 L245,87 L262,87 L295,71 L314,61 L331,53 L341,48 L340,44 L329,34 L326,31 L337,31 L379,34 L397,36 L414,37 L419,38 L436,39 L465,42 L509,45 L515,46 L528,46 L543,48 L591,52 L591,80 L587,85 L554,98 L530,109 L503,121 L476,133 L443,148 L440,149 L419,148 L279,135 L149,123 L-13,108 L-121,98 L-176,93 L-176,63 L-172,60 L-116,40 L-76,26 L-34,11 L-5,1 Z " fill="#E2DFDE" transform="translate(304,652)"/>
<path d="M0,0 L2,0 L2,26 L-2,31 L-35,44 L-59,55 L-86,67 L-113,79 L-146,94 L-149,95 L-170,94 L-310,81 L-440,69 L-602,54 L-710,44 L-756,40 L-756,38 L-764,38 L-764,11 L-736,13 L-731,14 L-698,17 L-671,20 L-623,24 L-601,26 L-573,29 L-547,31 L-519,34 L-483,37 L-464,39 L-448,40 L-443,41 L-421,43 L-373,47 L-367,48 L-341,50 L-302,54 L-254,58 L-227,61 L-180,65 L-146,65 L-116,52 L-83,37 L-65,29 L-22,10 L-1,1 Z " fill="#CFCED0" transform="translate(893,706)"/>
<path d="M0,0 L30,0 L47,4 L59,9 L69,15 L72,17 L71,20 L59,29 L47,38 L58,32 L73,23 L84,17 L95,14 L107,14 L107,28 L111,34 L121,39 L129,40 L138,44 L163,44 L178,41 L192,34 L196,31 L201,32 L224,45 L225,49 L197,62 L165,77 L156,83 L149,82 L126,75 L104,69 L98,67 L70,63 L42,63 L29,67 L23,70 L18,68 L13,65 L4,65 L-1,68 L-6,67 L-11,64 L-31,58 L-50,55 L-73,53 L-117,52 L-114,49 L-107,44 L-106,39 L-93,35 L-83,31 L-50,18 L-38,13 L-22,6 L-7,1 Z " fill="#FBF9F6" transform="translate(405,647)"/>
<path d="M0,0 L10,0 L14,3 L17,11 L19,19 L24,34 L29,51 L33,65 L33,69 L20,72 L14,72 L4,63 L-7,57 L-14,57 L-27,66 L-33,73 L-37,82 L-49,85 L-63,88 L-71,88 L-75,80 L-84,53 L-93,23 L-92,19 L-78,15 L-54,10 L-41,8 L-25,4 Z " fill="#F4F1F0" transform="translate(304,485)"/>
<path d="M0,0 L12,0 L12,14 L16,20 L26,25 L34,26 L43,30 L68,30 L83,27 L97,20 L101,17 L106,18 L129,31 L130,35 L125,37 L115,39 L105,44 L91,49 L67,58 L58,59 L33,49 L6,40 L-10,37 L-16,36 L-47,36 L-63,40 L-70,43 L-73,42 L-58,32 L-44,22 L-22,9 L-11,3 Z " fill="#FBF9F6" transform="translate(500,661)"/>
<path d="M0,0 L2,0 L2,26 L-2,31 L-35,44 L-59,55 L-86,67 L-113,79 L-146,94 L-150,94 L-150,67 L-121,54 L-92,41 L-67,30 L-22,10 L-1,1 Z " fill="#B6B9BF" transform="translate(893,706)"/>
<path d="M0,0 L2,2 L-3,7 L-6,10 L-19,19 L-27,24 L-18,21 L-2,17 L29,17 L47,20 L67,26 L93,36 L103,40 L112,39 L136,30 L150,25 L160,20 L168,19 L164,22 L137,35 L115,45 L106,51 L99,50 L76,43 L54,37 L48,35 L20,31 L-8,31 L-21,35 L-27,38 L-32,36 L-37,33 L-46,33 L-51,36 L-56,35 L-61,32 L-81,26 L-100,23 L-123,21 L-167,20 L-164,17 L-157,12 L-156,7 L-154,10 L-152,9 L-110,9 L-84,13 L-73,16 L-57,22 L-44,29 L-38,27 L-20,15 L-6,5 L-4,5 L-4,3 Z " fill="#E4E2E1" transform="translate(455,679)"/>
<path d="M0,0 L2,0 L1,7 L-14,50 L-16,55 L-17,52 L-27,52 L-62,47 L-94,40 L-94,38 L-68,24 L-66,24 L-66,21 L-46,15 L-31,10 Z " fill="#07D8F8" transform="translate(836,270)"/>
<path d="M0,0 L8,0 L9,5 L-33,7 L-23,15 L-21,21 L-12,20 L-9,25 L-9,35 L-15,44 L-22,48 L-24,49 L-36,49 L-46,46 L-55,40 L-58,35 L-60,32 L-60,22 L-57,14 L-50,8 L-43,5 L-42,3 L-36,2 Z " fill="#0A2648" transform="translate(563,427)"/>
<path d="M0,0 L12,2 L29,5 L38,6 L56,13 L66,17 L80,22 L88,26 L88,27 L68,31 L62,33 L31,38 L26,38 L15,23 L0,1 Z " fill="#00D3F8" transform="translate(768,571)"/>
<path d="M0,0 L10,0 L14,3 L17,11 L17,14 L-12,18 L-33,22 L-52,25 L-70,29 L-87,33 L-90,33 L-93,23 L-92,19 L-78,15 L-54,10 L-41,8 L-25,4 Z " fill="#03E1E0" transform="translate(304,485)"/>
<path d="M0,0 L12,0 L28,1 L38,4 L41,8 L40,13 L36,17 L29,23 L24,31 L18,35 L14,36 L7,36 L-2,29 L-7,19 L-10,13 L-10,4 L-6,1 Z " fill="#0B2649" transform="translate(426,457)"/>
<path d="M0,0 L13,2 L53,11 L80,17 L81,19 L43,28 L27,31 L21,32 L11,17 L1,2 Z " fill="#00D3F8" transform="translate(786,474)"/>
<path d="M0,0 L10,1 L15,3 L20,8 L22,15 L26,16 L26,14 L31,15 L32,16 L32,24 L28,31 L18,37 L12,38 L2,38 L-6,32 L-9,25 L-9,10 L-3,2 Z " fill="#0A2649" transform="translate(384,417)"/>
<path d="M0,0 L15,0 L11,3 L-13,16 L-33,26 L-38,25 L-56,12 L-67,5 L-67,4 L-59,3 Z " fill="#00D0F4" transform="translate(843,383)"/>
<path d="M0,0 L2,1 L-29,32 L-37,39 L-43,38 L-74,32 L-74,30 L-57,23 L-26,10 L-16,6 Z " fill="#00D0F4" transform="translate(744,229)"/>
<path d="M0,0 L2,0 L-1,9 L-6,14 L-19,35 L-25,45 L-38,44 L-61,40 L-57,36 L-45,29 L-23,15 L-5,4 Z " fill="#00D3F7" transform="translate(643,188)"/>
<path d="M0,0 L48,0 L48,20 L42,30 L34,37 L29,40 L19,42 L24,37 L29,29 L29,19 L27,15 L18,16 L16,14 L16,9 L12,7 L6,2 L0,1 Z " fill="#F7F8FA" transform="translate(524,433)"/>
<path d="M0,0 L25,5 L45,8 L52,11 L54,13 L54,23 L50,31 L49,31 L48,22 L43,20 L43,22 L38,21 L35,13 L31,9 L22,7 L15,8 L9,16 L9,31 L13,39 L17,43 L11,42 L3,36 L-3,27 L-4,24 L-4,11 Z " fill="#EFF2F5" transform="translate(367,411)"/>
<path d="M0,0 L12,0 L30,7 L38,12 L38,15 L29,12 L13,8 L-1,8 L-16,12 L-22,14 L-20,10 L-9,3 Z " fill="#09254A" transform="translate(536,386)"/>
<path d="M0,0 L2,0 L1,7 L-7,16 L-14,20 L-19,21 L-33,21 L-43,18 L-52,11 L-53,7 L-42,13 L-34,15 L-21,15 L-11,11 L-3,4 Z " fill="#09274C" transform="translate(496,496)"/>
<path d="M0,0 L19,0 L19,1 L9,4 L3,9 L0,17 L0,29 L-3,26 L-7,18 L-7,7 L-2,1 Z " fill="#EBEFF4" transform="translate(504,432)"/>
<path d="M0,0 L5,1 L2,4 L-1,5 L-2,3 L-19,3 L-40,4 L-148,4 L-147,2 L-45,2 Z " fill="#AFB5BE" transform="translate(891,371)"/>
<path d="M0,0 L24,0 L34,2 L36,4 L6,3 L0,2 Z " fill="#B4BCC7" transform="translate(424,462)"/>
<path d="M0,0 L2,0 L8,7 L17,7 L21,6 L20,9 L15,12 L7,12 L2,7 L0,4 Z " fill="#0A2B55" transform="translate(411,495)"/>
<path d="M0,0 L1,4 L-9,20 L-14,28 L-16,28 L-14,22 Z " fill="#0B618B" transform="translate(638,199)"/>
<path d="M0,0 L4,2 L-1,6 L-16,15 L-18,14 L-8,6 Z " fill="#1E3554" transform="translate(469,671)"/>
<path d="M0,0 L4,0 L4,2 L-7,7 L-12,6 L-19,7 L-16,5 Z " fill="#536F83" transform="translate(766,292)"/>
<path d="M0,0 L11,0 L14,3 L6,3 L0,2 Z " fill="#A1A9B9" transform="translate(424,462)"/>
<path d="M0,0 L2,1 L-9,13 L-11,12 Z " fill="#67778C" transform="translate(477,235)"/>
<path d="M0,0 L6,3 L6,5 L-6,5 L-6,4 L0,4 Z " fill="#586980" transform="translate(825,694)"/>
<path d="M0,0 L5,1 L2,4 L-1,5 L-2,3 L-7,2 L-7,1 Z " fill="#798695" transform="translate(891,371)"/>
<path d="M0,0 L2,0 L-1,9 L-4,11 L-3,5 L-5,4 Z " fill="#008DC3" transform="translate(643,188)"/>
<path d="M0,0 L7,1 L8,3 L1,4 L-2,2 Z " fill="#00BBDF" transform="translate(859,490)"/>
<path d="M0,0 L1,3 L-5,9 L-7,9 L-5,5 Z " fill="#6D7B8F" transform="translate(453,260)"/>
<path d="M0,0 L1,2 L-4,10 L-6,10 L-4,4 Z " fill="#0B5683" transform="translate(628,217)"/>
<path d="M0,0 L3,1 L-1,6 L-3,4 L-5,3 Z " fill="#7E8A9B" transform="translate(664,166)"/>
<path d="M0,0 L1,4 L-1,7 L-8,7 L-8,6 L-3,5 Z " fill="#0A5E88" transform="translate(621,227)"/>
<path d="M0,0 L4,2 L4,5 L-3,5 L0,2 Z " fill="#183356" transform="translate(395,412)"/>
<path d="M0,0 L2,0 L1,3 L-4,6 L-6,5 Z " fill="#2B4161" transform="translate(457,680)"/>
<path d="M0,0 L2,1 L-3,5 L-6,2 Z " fill="#00BEE7" transform="translate(744,229)"/>
</svg>
