<?xml version="1.0" encoding="UTF-8"?>
<!-- Generator: visioncortex VTracer 0.6.12 -->
<svg version="1.1" xmlns="http://www.w3.org/2000/svg" width="1024" height="1024">
<path d="M0,0 L1,2 L-11,21 L-18,32 L-29,48 L-44,70 L-50,79 L-36,73 L-24,69 L14,56 L29,52 L51,45 L69,40 L88,34 L112,27 L124,24 L127,25 L117,36 L110,45 L95,61 L88,68 L81,76 L73,83 L66,91 L58,98 L45,111 L43,111 L43,113 L53,110 L78,106 L117,101 L158,96 L190,94 L199,94 L194,99 L185,107 L171,118 L157,129 L139,142 L125,151 L100,167 L94,171 L115,172 L141,174 L195,177 L203,178 L203,179 L186,182 L165,185 L157,186 L167,193 L185,204 L196,211 L205,210 L218,207 L221,208 L211,212 L204,214 L208,218 L216,223 L216,225 L202,229 L187,234 L164,240 L151,244 L137,248 L139,250 L155,255 L164,258 L181,264 L195,268 L219,276 L245,284 L276,293 L275,295 L249,302 L223,309 L189,317 L175,320 L174,321 L157,324 L133,329 L130,330 L141,336 L164,349 L181,359 L205,372 L219,380 L251,397 L262,403 L262,404 L240,406 L236,407 L187,411 L165,413 L106,417 L130,432 L147,443 L169,457 L190,470 L209,482 L224,491 L232,496 L232,497 L208,500 L185,503 L159,506 L123,509 L103,511 L86,511 L86,513 L91,515 L100,523 L111,532 L120,540 L131,549 L146,562 L154,568 L154,570 L104,572 L66,573 L77,579 L97,591 L97,592 L45,592 L53,608 L56,619 L56,631 L50,639 L41,643 L25,645 L-21,645 L-40,642 L-48,637 L-51,633 L-51,623 L-50,618 L-60,612 L-76,606 L-81,605 L-124,603 L-126,609 L-134,622 L-139,628 L-148,634 L-157,638 L-179,642 L-214,642 L-234,638 L-242,634 L-247,628 L-247,618 L-244,610 L-235,600 L-227,592 L-217,585 L-223,576 L-229,564 L-233,553 L-237,535 L-239,518 L-239,488 L-236,462 L-230,436 L-228,432 L-237,435 L-251,435 L-261,430 L-268,422 L-273,411 L-276,397 L-276,382 L-273,366 L-269,350 L-261,331 L-252,315 L-245,306 L-251,298 L-262,282 L-269,267 L-272,256 L-272,233 L-269,223 L-263,214 L-258,209 L-249,188 L-240,173 L-230,160 L-218,146 L-196,124 L-185,115 L-173,105 L-153,90 L-140,81 L-114,64 L-97,53 L-71,38 L-55,29 L-33,17 L-10,5 Z " fill="#103B78" transform="translate(587,187)"/>
<path d="M0,0 L1,2 L-11,21 L-18,32 L-29,48 L-44,70 L-50,79 L-36,73 L-24,69 L14,56 L29,52 L51,45 L69,40 L88,34 L112,27 L124,24 L127,25 L117,36 L110,45 L95,61 L88,68 L81,76 L73,83 L66,91 L58,98 L45,111 L43,111 L43,113 L53,110 L78,106 L117,101 L158,96 L190,94 L199,94 L194,99 L185,107 L171,118 L157,129 L139,142 L125,151 L100,167 L94,171 L115,172 L141,174 L195,177 L203,178 L203,179 L186,182 L165,185 L130,185 L74,182 L68,181 L37,179 L39,177 L56,170 L75,161 L96,151 L118,139 L130,134 L146,124 L164,112 L175,104 L177,104 L177,102 L169,104 L112,113 L79,119 L44,124 L31,126 L6,129 L-5,131 L-13,131 L-8,127 L8,118 L23,108 L33,101 L48,89 L63,78 L65,78 L67,74 L77,65 L85,58 L104,39 L93,42 L85,45 L65,52 L57,55 L33,63 L18,67 L3,72 L-22,80 L-39,85 L-72,96 L-79,99 L-93,104 L-95,103 L-85,94 L-62,71 L-53,60 L-45,51 L-36,40 L-29,30 L-26,26 L-28,28 L-31,28 L-31,30 L-45,37 L-47,37 L-47,39 L-55,43 L-57,43 L-57,45 L-69,51 L-85,61 L-106,74 L-121,84 L-138,96 L-156,109 L-166,117 L-171,122 L-184,132 L-194,141 L-183,142 L-174,147 L-168,154 L-167,160 L-174,154 L-182,150 L-185,149 L-195,149 L-203,150 L-214,161 L-221,170 L-210,165 L-195,165 L-187,168 L-187,171 L-192,170 L-207,170 L-218,174 L-229,183 L-236,193 L-238,193 L-239,198 L-241,198 L-244,207 L-248,216 L-254,224 L-258,235 L-258,248 L-256,260 L-252,268 L-246,277 L-239,288 L-235,293 L-231,292 L-220,285 L-212,282 L-197,282 L-186,289 L-180,296 L-177,304 L-176,312 L-176,323 L-181,336 L-180,338 L-167,343 L-150,349 L-138,352 L-129,353 L-129,355 L-149,357 L-155,359 L-170,361 L-184,366 L-190,373 L-193,378 L-197,379 L-202,394 L-204,399 L-207,409 L-212,424 L-215,434 L-218,441 L-219,450 L-220,451 L-225,493 L-224,517 L-220,535 L-215,546 L-214,550 L-209,555 L-205,560 L-201,561 L-196,566 L-191,569 L-187,571 L-184,572 L-193,562 L-193,553 L-199,542 L-198,540 L-192,548 L-189,549 L-189,551 L-185,553 L-180,558 L-174,561 L-169,565 L-161,569 L-146,574 L-136,576 L-131,578 L-120,579 L-89,579 L-73,576 L-64,574 L-58,572 L-48,569 L-38,564 L-40,568 L-52,580 L-59,586 L-61,586 L-61,588 L-64,590 L-67,590 L-68,593 L-55,598 L-51,599 L-51,601 L-42,602 L-39,604 L-39,606 L-28,607 L-20,606 L-11,606 L-15,608 L-29,613 L-34,617 L-38,624 L-39,629 L-28,631 L-25,632 L-25,627 L-18,621 L-15,619 L-11,620 L-15,624 L-19,634 L24,633 L39,630 L41,626 L41,618 L37,604 L35,595 L33,595 L30,586 L30,549 L27,534 L27,531 L16,530 L-1,522 L-12,514 L-26,500 L-37,486 L-45,472 L-50,461 L-56,441 L-59,427 L-60,411 L-58,414 L-54,427 L-51,437 L-43,453 L-34,469 L-26,480 L-17,491 L-7,501 L-5,502 L-5,504 L-1,506 L15,514 L27,518 L37,519 L37,506 L33,498 L30,495 L30,493 L35,495 L45,508 L48,508 L48,494 L44,482 L36,469 L25,452 L10,423 L5,412 L0,398 L-5,387 L-16,364 L-22,354 L-21,352 L-11,359 L-1,365 L10,371 L33,384 L52,394 L68,402 L79,408 L65,396 L52,383 L44,376 L36,369 L35,366 L41,368 L61,375 L71,378 L81,380 L87,382 L99,384 L119,388 L139,391 L165,394 L189,396 L232,398 L232,396 L227,395 L201,382 L182,372 L159,360 L150,355 L130,345 L116,337 L93,325 L78,317 L68,312 L68,311 L106,310 L140,307 L174,304 L180,303 L198,303 L198,301 L228,296 L245,294 L245,292 L232,290 L208,283 L183,276 L171,272 L164,270 L154,268 L143,265 L134,262 L111,255 L102,252 L82,245 L70,241 L69,239 L96,236 L98,235 L136,230 L194,219 L202,217 L208,218 L216,223 L216,225 L202,229 L187,234 L164,240 L151,244 L137,248 L139,250 L155,255 L164,258 L181,264 L195,268 L219,276 L245,284 L276,293 L275,295 L249,302 L223,309 L189,317 L175,320 L174,321 L157,324 L133,329 L130,330 L141,336 L164,349 L181,359 L205,372 L219,380 L251,397 L262,403 L262,404 L240,406 L236,407 L187,411 L165,413 L106,417 L130,432 L147,443 L169,457 L190,470 L209,482 L224,491 L232,496 L232,497 L208,500 L185,503 L159,506 L123,509 L103,511 L86,511 L86,513 L91,515 L100,523 L111,532 L120,540 L131,549 L146,562 L154,568 L154,570 L104,572 L66,573 L77,579 L97,591 L97,592 L45,592 L53,608 L56,619 L56,631 L50,639 L41,643 L25,645 L-21,645 L-40,642 L-48,637 L-51,633 L-51,623 L-50,618 L-60,612 L-76,606 L-81,605 L-124,603 L-126,609 L-134,622 L-139,628 L-148,634 L-157,638 L-179,642 L-214,642 L-234,638 L-242,634 L-247,628 L-247,618 L-244,610 L-235,600 L-227,592 L-217,585 L-223,576 L-229,564 L-233,553 L-237,535 L-239,518 L-239,488 L-236,462 L-230,436 L-228,432 L-237,435 L-251,435 L-261,430 L-268,422 L-273,411 L-276,397 L-276,382 L-273,366 L-269,350 L-261,331 L-252,315 L-245,306 L-251,298 L-262,282 L-269,267 L-272,256 L-272,233 L-269,223 L-263,214 L-258,209 L-249,188 L-240,173 L-230,160 L-218,146 L-196,124 L-185,115 L-173,105 L-153,90 L-140,81 L-114,64 L-97,53 L-71,38 L-55,29 L-33,17 L-10,5 Z M-201,560 Z " fill="#051E3F" transform="translate(587,187)"/>
<path d="M0,0 L28,0 L48,6 L63,14 L73,22 L81,31 L86,40 L89,50 L90,55 L90,71 L85,84 L86,90 L97,105 L97,109 L90,108 L89,107 L68,107 L59,113 L52,117 L42,120 L37,122 L29,123 L33,126 L39,131 L39,142 L36,148 L42,148 L47,153 L48,165 L45,168 L36,169 L31,166 L27,162 L27,153 L24,154 L13,154 L5,150 L-1,142 L-7,130 L-8,121 L-17,120 L-28,115 L-39,109 L-49,100 L-57,89 L-62,78 L-64,68 L-64,52 L-58,36 L-50,25 L-41,17 L-30,10 L-20,5 L-6,1 Z " fill="#FCFAF9" transform="translate(340,130)"/>
<path d="M0,0 L20,0 L43,1 L56,5 L65,9 L74,14 L75,17 L74,20 L74,30 L78,35 L88,39 L103,41 L149,41 L165,39 L175,34 L179,28 L180,22 L181,26 L219,28 L261,33 L276,37 L283,41 L282,46 L273,50 L261,53 L243,56 L222,58 L218,59 L157,63 L98,64 L-24,64 L-74,62 L-117,59 L-122,58 L-138,57 L-159,54 L-171,52 L-184,48 L-188,45 L-187,40 L-183,37 L-170,34 L-144,30 L-123,28 L-120,28 L-115,32 L-102,36 L-90,38 L-55,38 L-30,33 L-19,27 L-13,22 L-4,8 Z " fill="#E8E7E7" transform="translate(463,790)"/>
<path d="M0,0 L11,0 L16,2 L18,5 L17,9 L6,18 L4,21 L14,15 L23,14 L24,17 L24,28 L22,36 L16,46 L10,55 L6,68 L2,88 L0,92 L-2,103 L-8,117 L-17,125 L-25,129 L-30,130 L-37,130 L-44,126 L-49,120 L-52,113 L-53,108 L-53,86 L-52,77 L-47,59 L-43,49 L-35,33 L-28,22 L-19,12 L-11,5 L-4,1 Z " fill="#0E3874" transform="translate(377,479)"/>
<path d="M0,0 L13,0 L26,4 L34,10 L41,18 L46,28 L47,33 L47,44 L45,54 L39,64 L34,70 L24,76 L15,79 L3,79 L-8,76 L-17,69 L-24,61 L-27,56 L-30,46 L-30,28 L-24,16 L-17,8 L-6,2 Z " fill="#F6F7F9" transform="translate(510,381)"/>
<path d="M0,0 L28,0 L48,6 L63,14 L73,22 L81,31 L86,40 L89,50 L90,55 L90,71 L85,84 L86,90 L97,105 L97,109 L90,108 L89,107 L68,107 L59,113 L52,117 L42,120 L37,122 L29,123 L33,126 L39,131 L39,142 L36,148 L42,148 L47,153 L48,165 L45,168 L36,169 L31,166 L27,162 L27,153 L24,154 L13,154 L5,150 L-1,142 L-7,130 L-8,121 L-17,120 L-28,115 L-39,109 L-49,100 L-57,89 L-62,78 L-64,68 L-64,52 L-58,36 L-50,25 L-41,17 L-30,10 L-20,5 L-6,1 Z M5,6 L-9,8 L-18,11 L-32,18 L-45,29 L-52,39 L-56,48 L-58,53 L-58,66 L-55,79 L-47,92 L-40,100 L-30,107 L-23,111 L-13,115 L0,118 L24,118 L45,113 L59,105 L69,97 L76,87 L81,78 L83,71 L83,57 L80,43 L73,32 L62,21 L48,13 L38,9 L25,6 Z " fill="#C5DCEB" transform="translate(340,130)"/>
<path d="M0,0 L15,0 L25,7 L30,13 L32,19 L32,29 L29,39 L23,50 L16,52 L14,59 L3,64 L-15,64 L-23,60 L-30,50 L-31,46 L-31,30 L-30,26 L-28,26 L-27,20 L-20,11 L-9,3 Z " fill="#F3F4F7" transform="translate(380,356)"/>
<path d="M0,0 L14,0 L26,2 L65,5 L63,9 L50,21 L34,36 L22,47 L10,40 L9,37 L25,31 L6,35 L-1,34 L-24,19 L-37,11 L-39,8 L-2,3 L2,2 Z " fill="#22D2ED" transform="translate(782,364)"/>
<path d="M0,0 L11,0 L18,3 L13,7 L12,9 L12,15 L16,19 L22,19 L25,16 L26,13 L28,13 L31,20 L31,34 L25,46 L17,53 L13,55 L10,55 L10,57 L-3,57 L-11,53 L-19,44 L-22,36 L-22,23 L-18,13 L-11,5 L-6,2 Z " fill="#0A2142" transform="translate(507,388)"/>
<path d="M0,0 L19,0 L29,2 L40,8 L49,16 L51,20 L51,23 L43,27 L22,36 L15,40 L15,50 L22,59 L31,64 L46,64 L54,61 L57,60 L56,64 L45,70 L30,70 L20,65 L13,58 L12,54 L6,54 L1,56 L-9,56 L-14,53 L-19,45 L-18,43 L-11,49 L-5,51 L2,51 L8,48 L8,38 L0,29 L-8,16 L-11,8 L-10,3 L-8,1 Z " fill="#041E3F" transform="translate(405,405)"/>
<path d="M0,0 L19,0 L31,7 L36,14 L36,28 L32,35 L18,48 L17,56 L-1,56 L-1,45 L5,37 L13,30 L15,30 L16,27 L16,20 L11,17 L3,17 L-3,21 L-5,25 L-13,24 L-20,20 L-19,13 L-12,5 L-5,1 Z " fill="#29DCF1" transform="translate(345,151)"/>
<path d="M0,0 L20,0 L43,1 L56,5 L65,9 L74,14 L75,17 L72,22 L-11,22 L-8,15 Z " fill="#FBF7F5" transform="translate(463,790)"/>
<path d="M0,0 L9,0 L14,2 L14,4 L10,7 L10,14 L12,16 L19,16 L22,15 L22,26 L18,36 L12,43 L3,48 L-8,48 L-15,43 L-19,34 L-20,32 L-20,23 L-17,13 L-11,5 L-6,1 Z " fill="#092141" transform="translate(385,362)"/>
<path d="M0,0 L5,2 L24,12 L46,24 L61,33 L79,43 L79,45 L71,46 L24,46 L14,28 L4,10 L0,2 Z " fill="#1FD1ED" transform="translate(712,633)"/>
<path d="M0,0 L6,2 L25,12 L48,24 L67,34 L80,40 L80,42 L62,42 L37,41 L19,39 L9,20 L4,10 L0,2 Z " fill="#1FD0EC" transform="translate(739,543)"/>
<path d="M0,0 L1,2 L-3,11 L-7,23 L-11,33 L-14,44 L-19,63 L-23,93 L-23,124 L-20,143 L-13,164 L-4,179 L6,190 L3,190 L-5,183 L-14,174 L-21,163 L-26,151 L-30,137 L-32,125 L-32,94 L-28,70 L-23,52 L-20,42 L-15,30 L-4,7 Z " fill="#93A8C2" transform="translate(399,570)"/>
<path d="M0,0 L2,0 L2,2 L-17,15 L-34,26 L-40,30 L-49,29 L-62,25 L-83,17 L-84,15 L-74,12 L-26,4 Z " fill="#1BCCE9" transform="translate(762,289)"/>
<path d="M0,0 L10,1 L26,6 L50,13 L75,20 L84,22 L84,24 L63,28 L37,32 L30,32 L12,14 L5,6 Z " fill="#1DD0EC" transform="translate(748,457)"/>
<path d="M0,0 L2,1 L-24,27 L-35,36 L-38,39 L-47,37 L-66,31 L-74,27 L-70,24 L-43,15 L-27,9 L-11,4 L-4,1 Z " fill="#1DCFEC" transform="translate(690,225)"/>
<path d="M0,0 L7,1 L32,7 L41,9 L52,10 L67,13 L75,13 L83,18 L83,20 L71,20 L69,21 L13,21 L4,20 L8,18 L23,17 L53,17 L34,14 L7,12 L7,10 L21,9 L1,2 Z " fill="#0A2D5A" transform="translate(705,383)"/>
<path d="M0,0 L6,0 L12,3 L15,6 L15,11 L8,17 L5,19 L-5,19 L-9,17 L-11,14 L-11,7 L-7,2 Z " fill="#FBF9F8" transform="translate(359,259)"/>
<path d="M0,0 L10,0 L20,3 L23,6 L26,7 L36,21 L37,26 L33,22 L29,17 L20,12 L11,9 L-10,9 L-18,11 L-23,14 L-25,13 L-15,5 L-10,2 Z " fill="#041F43" transform="translate(522,347)"/>
<path d="M0,0 L17,0 L27,3 L36,10 L44,19 L47,25 L47,32 L44,28 L37,18 L29,11 L19,7 L14,6 L1,6 L-8,9 L-11,8 L-9,4 L-2,1 Z " fill="#0E2749" transform="translate(509,376)"/>
<path d="M0,0 L9,2 L20,5 L29,8 L29,10 L34,11 L47,15 L53,17 L53,21 L43,20 L40,19 L11,18 L2,16 L2,15 L26,15 L9,6 L0,1 Z " fill="#082A56" transform="translate(705,458)"/>
<path d="M0,0 L8,0 L15,6 L15,13 L8,19 L1,19 L-4,15 L-5,13 L-5,5 Z " fill="#2ADCF0" transform="translate(348,214)"/>
<path d="M0,0 L1,4 L0,10 L0,25 L3,36 L9,46 L9,48 L6,47 L-1,36 L-6,27 L-7,21 L-7,8 L-5,8 L-3,3 Z " fill="#7992B4" transform="translate(340,417)"/>
<path d="M0,0 L16,0 L29,4 L40,10 L42,13 L33,11 L17,7 L-3,3 L-3,1 Z " fill="#A4AAB5" transform="translate(407,410)"/>
<path d="M0,0 L19,0 L29,2 L40,8 L44,11 L44,17 L34,11 L23,7 L7,5 L7,4 L13,3 L13,1 L0,1 Z " fill="#0D294D" transform="translate(405,405)"/>
<path d="M0,0 L15,0 L23,3 L23,6 L18,5 L3,5 L-8,9 L-14,14 L-19,13 L-15,7 L-11,4 L-2,1 Z M-16,11 Z " fill="#0D2951" transform="translate(377,352)"/>
<path d="M0,0 L41,0 L42,2 L31,3 L31,4 L-10,4 L-19,3 L-15,1 Z " fill="#0D3365" transform="translate(728,400)"/>
<path d="M0,0 L5,2 L18,10 L30,15 L30,16 L20,17 L4,13 L-8,9 L-8,7 L5,9 L12,12 L17,13 L17,11 L8,9 L4,7 L0,2 Z " fill="#0B2C5C" transform="translate(709,544)"/>
<path d="M0,0 L3,0 L2,4 L-4,8 L-17,12 L-28,14 L-24,10 L-18,6 Z " fill="#0C3367" transform="translate(627,270)"/>
<path d="M0,0 L5,1 L3,3 L-21,9 L-30,10 L-30,7 L-21,3 Z " fill="#0B2D5B" transform="translate(693,327)"/>
<path d="M0,0 L6,0 L9,2 L9,8 L6,11 L-2,10 L-4,8 L-4,3 Z " fill="#F8F9F8" transform="translate(376,283)"/>
<path d="M0,0 L1,0 L3,15 L6,23 L11,32 L11,34 L8,33 L1,22 L-4,13 L-3,9 L-3,11 L0,11 Z " fill="#748DAF" transform="translate(338,431)"/>
<path d="M0,0 L5,0 L1,3 L-15,7 L-1,8 L-1,9 L-26,10 L-24,8 L-5,1 Z " fill="#0B3266" transform="translate(673,313)"/>
<path d="M0,0 L1,2 L-3,11 L-7,23 L-10,30 L-14,29 L-12,23 L-1,1 Z " fill="#7790B3" transform="translate(399,570)"/>
<path d="M0,0 L28,0 L34,2 L34,3 L9,3 L0,1 Z " fill="#0C3062" transform="translate(707,473)"/>
<path d="M0,0 L17,0 L21,2 L21,5 L16,4 L-2,3 Z " fill="#0B284C" transform="translate(379,353)"/>
<path d="M0,0 L4,0 L8,5 L8,8 L-3,8 L-2,3 Z " fill="#F3F5F7" transform="translate(417,223)"/>
<path d="M0,0 L8,0 L6,5 L3,11 L1,11 L0,9 Z " fill="#F9F9F9" transform="translate(341,253)"/>
<path d="M0,0 L8,1 L26,7 L25,10 L6,3 L0,1 Z " fill="#0E3062" transform="translate(707,561)"/>
<path d="M0,0 L3,1 L-7,5 L-14,7 L-15,9 L-16,6 L-20,5 Z " fill="#1597B2" transform="translate(805,394)"/>
<path d="M0,0 L8,4 L8,6 L0,7 L-10,7 L-10,6 L-1,6 Z " fill="#0EB9D6" transform="translate(783,672)"/>
<path d="M0,0 L5,1 L8,2 L8,4 L-10,4 L-7,2 L0,2 Z " fill="#11AFC7" transform="translate(811,581)"/>
<path d="M0,0 L3,0 L6,4 L-7,7 L-6,3 L-10,2 L2,3 L2,1 Z " fill="#0F396A" transform="translate(786,400)"/>
<path d="M0,0 L1,0 L2,15 L-1,18 L-4,13 L-3,9 L-3,11 L0,11 Z " fill="#617FA8" transform="translate(338,431)"/>
<path d="M0,0 L4,2 L10,9 L7,9 L-1,3 Z " fill="#11315E" transform="translate(387,747)"/>
<path d="M0,0 L1,2 L0,5 L-2,5 L-3,12 L-8,14 L-6,8 L-4,8 L-3,3 L-1,3 Z " fill="#234471" transform="translate(352,377)"/>
<path d="M0,0 L4,1 L-4,4 L-6,4 L-5,9 L-11,7 L-12,5 Z " fill="#17A3C4" transform="translate(628,246)"/>
<path d="M0,0 L13,0 L12,3 L2,4 L6,2 L-7,2 L-7,1 Z " fill="#0B3061" transform="translate(566,792)"/>
<path d="M0,0 L2,1 L2,5 L-1,5 L0,8 L-3,8 L-5,3 Z " fill="#485C77" transform="translate(493,427)"/>
<path d="M0,0 L3,3 L5,7 L5,14 L2,10 L0,4 Z " fill="#092856" transform="translate(551,394)"/>
<path d="M0,0 L9,0 L17,1 L17,2 L7,4 L3,3 L6,3 L6,1 L0,1 Z " fill="#154360" transform="translate(773,364)"/>
<path d="M0,0 L2,1 L-5,7 L-6,4 L-10,3 Z " fill="#0EB1CE" transform="translate(690,225)"/>
<path d="M0,0 L7,4 L8,6 L-1,4 L-4,2 Z " fill="#8C96A5" transform="translate(441,417)"/>
<path d="M0,0 L3,1 L7,8 L7,10 L4,9 L0,3 Z " fill="#6582AB" transform="translate(342,455)"/>
<path d="M0,0 L2,1 L0,5 L-11,5 L-9,3 L-3,2 Z " fill="#0B3066" transform="translate(403,324)"/>
<path d="M0,0 L8,0 L5,3 L3,3 L2,5 L1,2 L-3,1 Z " fill="#0C81A0" transform="translate(788,398)"/>
<path d="M0,0 L10,0 L9,2 L-2,3 Z " fill="#031D41" transform="translate(379,353)"/>
<path d="M0,0 L2,0 L1,6 L-2,9 L-1,2 Z " fill="#98AAC6" transform="translate(392,583)"/>
<path d="M0,0 L1,2 L4,2 L4,4 L-4,6 L-4,3 Z " fill="#DEDFE5" transform="translate(399,402)"/>
<path d="M0,0 L1,4 L0,10 L-3,11 Z " fill="#4F5D72" transform="translate(319,534)"/>
<path d="M0,0 L3,0 L3,4 L-3,4 L-2,1 Z " fill="#0D3264" transform="translate(755,475)"/>
<path d="M0,0 L2,1 L-1,6 L-5,7 L-3,3 Z " fill="#05224A" transform="translate(386,493)"/>
<path d="M0,0 L5,5 L6,7 L3,8 L0,2 Z " fill="#0A2956" transform="translate(388,727)"/>
<path d="M0,0 L2,1 L-3,7 L-5,7 L-3,3 Z " fill="#213350" transform="translate(496,393)"/>
<path d="M0,0 L11,0 L9,4 L8,1 L0,1 Z " fill="#53DDF1" transform="translate(836,369)"/>
</svg>
