<?xml version="1.0" encoding="UTF-8"?>
<!-- Generator: visioncortex VTracer 0.6.12 -->
<svg version="1.1" xmlns="http://www.w3.org/2000/svg" width="1024" height="1024">
<path d="M0,0 L1024,0 L1024,1024 L0,1024 Z " fill="#FDFAF7" transform="translate(0,0)"/>
<path d="M0,0 L2,1 L-6,17 L-26,58 L-37,81 L-44,95 L-47,102 L-49,106 L-49,109 L-16,94 L9,83 L19,79 L31,74 L41,70 L68,60 L80,56 L90,52 L102,48 L109,46 L107,50 L98,61 L85,77 L76,88 L67,99 L54,114 L41,129 L29,143 L21,152 L29,152 L46,148 L69,141 L87,136 L108,129 L121,125 L162,111 L174,107 L178,107 L175,116 L160,156 L155,166 L143,176 L130,186 L114,199 L97,212 L90,217 L104,217 L120,215 L136,214 L156,211 L186,208 L189,207 L204,205 L226,202 L238,201 L233,206 L220,216 L201,230 L182,244 L167,254 L145,269 L130,279 L113,290 L111,290 L111,292 L121,293 L141,296 L165,300 L213,307 L251,311 L255,313 L215,332 L180,348 L167,354 L148,362 L136,367 L118,375 L120,377 L144,385 L154,389 L171,394 L182,398 L196,402 L211,407 L236,414 L247,417 L246,419 L227,427 L213,433 L201,438 L186,444 L175,449 L155,456 L148,459 L127,466 L119,469 L103,475 L127,487 L134,490 L161,503 L187,515 L184,517 L163,524 L145,529 L127,535 L109,540 L114,544 L132,554 L132,555 L116,558 L97,562 L92,564 L98,567 L98,568 L84,568 L54,565 L38,563 L9,561 L-4,559 L-16,558 L-15,565 L-9,569 L-1,573 L-1,578 L-17,586 L-40,598 L-61,609 L-77,617 L-83,619 L-103,619 L-141,615 L-189,609 L-209,606 L-223,606 L-227,607 L-245,607 L-255,602 L-256,601 L-316,596 L-365,590 L-380,588 L-378,584 L-377,579 L-379,577 L-378,573 L-367,568 L-331,551 L-319,545 L-312,545 L-318,535 L-322,528 L-322,526 L-328,527 L-340,527 L-350,523 L-358,517 L-363,511 L-367,500 L-367,483 L-364,473 L-357,462 L-355,460 L-356,454 L-368,431 L-369,428 L-369,417 L-364,410 L-356,405 L-353,404 L-346,404 L-338,407 L-333,412 L-330,419 L-317,449 L-315,453 L-315,456 L-307,457 L-287,457 L-268,453 L-252,446 L-243,440 L-242,438 L-247,437 L-265,427 L-278,417 L-285,410 L-293,399 L-300,384 L-301,378 L-301,363 L-300,356 L-302,346 L-302,309 L-299,294 L-293,268 L-282,236 L-277,225 L-266,202 L-255,182 L-242,161 L-226,137 L-216,124 L-204,108 L-190,90 L-181,79 L-172,68 L-159,53 L-145,38 L-133,26 L-131,26 L-133,35 L-137,49 L-146,78 L-150,88 L-155,103 L-136,90 L-120,79 L-103,67 L-80,52 L-45,29 L-20,13 Z " fill="#15457E" transform="translate(639,164)"/>
<path d="M0,0 L2,1 L-6,17 L-26,58 L-37,81 L-44,95 L-47,102 L-49,106 L-49,109 L-16,94 L9,83 L19,79 L31,74 L41,70 L68,60 L80,56 L90,52 L102,48 L109,46 L107,50 L98,61 L85,77 L76,88 L67,99 L54,114 L41,129 L29,143 L21,152 L29,152 L46,148 L69,141 L87,136 L108,129 L110,130 L86,145 L75,151 L62,155 L38,162 L17,169 L-1,175 L-13,180 L-34,190 L-34,187 L-10,163 L-9,161 L-7,161 L-7,159 L-5,159 L-3,155 L12,140 L19,132 L31,120 L38,112 L54,95 L62,87 L69,79 L81,66 L68,71 L38,85 L23,92 L7,100 L-3,104 L-22,113 L-38,121 L-65,135 L-91,149 L-100,155 L-102,154 L-97,149 L-95,149 L-93,145 L-85,136 L-72,116 L-63,102 L-51,82 L-49,79 L-47,73 L-34,49 L-26,36 L-21,26 L-32,34 L-39,37 L-53,47 L-71,60 L-90,74 L-104,84 L-123,98 L-137,109 L-151,120 L-164,132 L-172,139 L-187,154 L-194,162 L-203,173 L-204,171 L-192,150 L-180,127 L-168,102 L-162,87 L-159,79 L-153,64 L-166,81 L-178,97 L-189,111 L-203,130 L-217,150 L-232,173 L-248,200 L-256,216 L-264,232 L-272,251 L-280,276 L-286,301 L-286,306 L-281,302 L-277,300 L-267,300 L-260,303 L-250,311 L-251,313 L-262,308 L-266,307 L-278,307 L-288,311 L-288,344 L-285,377 L-278,390 L-267,403 L-257,411 L-247,417 L-231,425 L-217,429 L-201,433 L-190,435 L-179,436 L-128,436 L-114,435 L-119,439 L-129,443 L-150,450 L-176,455 L-194,455 L-189,467 L-182,492 L-178,515 L-176,537 L-168,541 L-150,540 L-149,534 L-142,523 L-134,515 L-124,509 L-111,505 L-86,502 L-73,499 L-64,493 L-58,484 L-54,477 L-48,460 L-45,450 L-41,436 L-39,432 L-39,451 L-44,478 L-52,494 L-57,501 L-65,506 L-74,509 L-84,511 L-109,514 L-122,518 L-130,524 L-137,532 L-140,537 L-140,545 L-137,548 L-134,548 L-128,539 L-120,532 L-118,532 L-120,536 L-126,545 L-126,554 L-119,557 L-113,558 L-112,552 L-108,546 L-103,542 L-100,543 L-106,552 L-107,559 L-90,557 L-75,553 L-62,549 L-44,545 L-32,541 L-16,533 L-6,524 L2,514 L10,499 L16,481 L20,463 L21,453 L23,451 L24,457 L24,492 L22,504 L21,506 L20,529 L21,536 L27,544 L37,551 L50,555 L62,557 L59,520 L57,511 L55,497 L50,477 L46,461 L42,451 L37,435 L32,423 L27,411 L21,400 L13,390 L15,389 L24,393 L38,398 L25,383 L17,373 L13,370 L13,368 L25,371 L45,377 L71,385 L92,390 L102,393 L95,390 L72,379 L56,371 L50,369 L50,367 L66,365 L92,359 L105,356 L126,350 L142,345 L151,342 L160,339 L163,339 L164,337 L171,336 L190,329 L203,325 L210,322 L218,319 L215,318 L166,314 L150,312 L127,311 L106,309 L53,309 L34,310 L38,307 L76,288 L95,278 L121,264 L143,252 L149,249 L152,246 L157,244 L178,231 L197,219 L200,217 L189,218 L134,227 L125,228 L124,229 L94,233 L69,237 L36,241 L30,241 L35,236 L52,223 L70,210 L88,197 L105,185 L119,175 L133,165 L139,161 L150,161 L157,162 L154,167 L139,179 L125,190 L109,203 L96,213 L90,217 L104,217 L120,215 L136,214 L156,211 L186,208 L189,207 L204,205 L226,202 L238,201 L233,206 L220,216 L201,230 L182,244 L167,254 L145,269 L130,279 L113,290 L111,290 L111,292 L121,293 L141,296 L165,300 L213,307 L251,311 L255,313 L215,332 L180,348 L167,354 L148,362 L136,367 L118,375 L120,377 L144,385 L154,389 L171,394 L182,398 L196,402 L211,407 L236,414 L247,417 L246,419 L227,427 L213,433 L201,438 L186,444 L175,449 L155,456 L148,459 L127,466 L119,469 L103,475 L127,487 L134,490 L161,503 L187,515 L184,517 L163,524 L145,529 L127,535 L109,540 L114,544 L132,554 L132,555 L116,558 L97,562 L92,564 L98,567 L98,568 L84,568 L54,565 L38,563 L9,561 L-4,559 L-16,558 L-15,565 L-9,569 L-1,573 L-1,578 L-17,586 L-40,598 L-61,609 L-77,617 L-83,619 L-103,619 L-141,615 L-189,609 L-209,606 L-223,606 L-227,607 L-245,607 L-255,602 L-256,601 L-316,596 L-365,590 L-380,588 L-378,584 L-377,579 L-379,577 L-378,573 L-367,568 L-331,551 L-319,545 L-312,545 L-318,535 L-322,528 L-322,526 L-328,527 L-340,527 L-350,523 L-358,517 L-363,511 L-367,500 L-367,483 L-364,473 L-357,462 L-355,460 L-356,454 L-368,431 L-369,428 L-369,417 L-364,410 L-356,405 L-353,404 L-346,404 L-338,407 L-333,412 L-330,419 L-317,449 L-315,453 L-315,456 L-307,457 L-287,457 L-268,453 L-252,446 L-243,440 L-242,438 L-247,437 L-265,427 L-278,417 L-285,410 L-293,399 L-300,384 L-301,378 L-301,363 L-300,356 L-302,346 L-302,309 L-299,294 L-293,268 L-282,236 L-277,225 L-266,202 L-255,182 L-242,161 L-226,137 L-216,124 L-204,108 L-190,90 L-181,79 L-172,68 L-159,53 L-145,38 L-133,26 L-131,26 L-133,35 L-137,49 L-146,78 L-150,88 L-155,103 L-136,90 L-120,79 L-103,67 L-80,52 L-45,29 L-20,13 Z " fill="#092445" transform="translate(639,164)"/>
<path d="M0,0 L5,1 L23,1 L32,17 L33,20 L24,22 L8,30 L-22,44 L-33,49 L-32,53 L-31,58 L-35,63 L-20,64 L12,68 L43,71 L89,75 L97,80 L100,81 L118,81 L122,80 L136,80 L179,86 L230,92 L242,93 L262,93 L271,89 L288,81 L307,71 L330,59 L343,53 L344,48 L339,46 L331,42 L329,40 L329,33 L341,33 L354,35 L395,38 L399,39 L429,42 L444,42 L446,43 L481,47 L519,50 L537,52 L578,56 L578,58 L557,67 L530,79 L496,94 L460,110 L440,119 L419,119 L384,116 L369,114 L327,110 L287,106 L259,103 L234,101 L232,100 L208,98 L203,97 L179,95 L109,88 L64,84 L39,81 L13,79 L-3,77 L-23,75 L-87,69 L-123,65 L-149,63 L-162,61 L-162,59 L-121,44 L-102,37 L-82,30 L-75,27 L-59,21 L-29,10 L-7,3 Z " fill="#E2DFDE" transform="translate(294,689)"/>
<path d="M0,0 L31,0 L50,4 L66,12 L63,15 L41,28 L23,41 L8,53 L17,47 L32,36 L55,23 L72,15 L83,12 L91,12 L94,18 L102,24 L112,29 L119,31 L147,31 L166,27 L176,23 L196,23 L216,25 L216,31 L222,36 L222,38 L204,46 L185,56 L161,68 L152,74 L133,72 L126,71 L125,70 L56,60 L43,59 L13,59 L7,57 L-11,56 L-27,52 L-45,49 L-95,45 L-99,44 L-115,43 L-127,41 L-126,39 L-93,24 L-74,15 L-66,14 L-54,25 L-51,27 L-46,27 L-45,26 L-44,8 L-21,3 Z " fill="#DCDADB" transform="translate(399,699)"/>
<path d="M0,0 L31,0 L50,4 L66,12 L63,15 L41,28 L23,41 L8,53 L4,55 L-7,47 L-17,42 L-28,38 L-37,36 L-51,35 L-109,35 L-110,32 L-83,19 L-74,15 L-66,14 L-54,25 L-51,27 L-46,27 L-45,26 L-44,8 L-21,3 Z " fill="#FBF8F6" transform="translate(399,699)"/>
<path d="M0,0 L8,0 L11,6 L15,12 L17,13 L17,15 L22,17 L33,22 L43,25 L67,25 L83,21 L103,17 L129,17 L131,19 L128,22 L119,25 L85,42 L65,53 L58,53 L40,48 L16,42 L4,39 L-18,35 L-47,35 L-64,38 L-71,40 L-66,35 L-51,24 L-28,11 L-11,3 Z " fill="#FCF9F7" transform="translate(482,711)"/>
<path d="M0,0 L7,0 L15,6 L21,14 L22,17 L22,29 L17,39 L9,46 L-3,52 L-25,58 L-41,60 L-59,60 L-64,50 L-63,45 L-60,43 L-58,39 L-58,30 L-62,24 L-70,17 L-73,15 L-73,13 L-42,12 L-30,10 L-10,4 Z " fill="#15457E" transform="translate(410,619)"/>
<path d="M0,0 L4,0 L1,9 L-14,49 L-17,55 L-30,54 L-48,52 L-91,44 L-94,43 L-93,40 L-70,26 L-65,23 L-64,21 L-57,19 L-21,7 Z " fill="#02CFF9" transform="translate(813,271)"/>
<path d="M0,0 L5,1 L12,16 L25,46 L40,80 L42,86 L42,94 L34,97 L31,99 L26,99 L16,80 L16,75 L17,74 L17,55 L13,49 L6,44 L-2,41 L-4,39 L-8,29 L-16,11 L-17,8 L-1,1 Z " fill="#F7A844" transform="translate(305,603)"/>
<path d="M0,0 L5,1 L8,10 L8,21 L4,31 L-5,41 L-15,46 L-20,48 L-23,47 L-19,42 L-17,38 L-17,29 L-19,26 L-27,26 L-29,23 L-30,18 L-38,15 L-50,15 L-58,19 L-62,24 L-64,28 L-64,36 L-62,41 L-69,35 L-73,28 L-75,21 L-75,12 L-72,9 L-44,7 L-3,1 Z " fill="#F6F8FB" transform="translate(564,509)"/>
<path d="M0,0 L10,1 L45,6 L73,12 L86,15 L85,17 L55,27 L28,34 L24,32 L14,19 L3,5 Z " fill="#00CDF7" transform="translate(768,569)"/>
<path d="M0,0 L19,0 L30,2 L36,5 L37,6 L37,14 L35,14 L33,19 L26,27 L20,32 L15,34 L4,34 L-6,28 L-13,20 L-17,14 L-17,6 L-11,2 Z " fill="#092548" transform="translate(431,554)"/>
<path d="M0,0 L12,0 L21,4 L23,12 L31,11 L34,15 L34,24 L29,32 L23,36 L2,36 L-8,31 L-15,22 L-15,14 L-10,6 L-5,2 Z " fill="#102D51" transform="translate(514,523)"/>
<path d="M0,0 L2,0 L0,6 L-9,22 L-22,45 L-25,51 L-44,50 L-63,48 L-63,46 L-48,36 L-30,23 L-11,9 Z " fill="#00CCF7" transform="translate(616,190)"/>
<path d="M0,0 L14,0 L58,4 L73,5 L78,6 L76,8 L65,12 L54,16 L36,22 L27,26 L22,26 L13,15 L4,6 Z " fill="#00CAF6" transform="translate(781,476)"/>
<path d="M0,0 L2,3 L4,15 L4,26 L-8,25 L-41,25 L-61,28 L-82,33 L-85,33 L-85,23 L-62,21 L-38,16 L-25,12 L-9,5 Z " fill="#F0EFEF" transform="translate(440,669)"/>
<path d="M0,0 L3,4 L8,12 L23,21 L26,24 L26,30 L22,32 L12,32 L4,29 L4,31 L8,33 L12,35 L26,36 L26,43 L22,47 L9,47 L-1,41 L-7,32 L-8,27 L-8,15 L-5,6 Z " fill="#12417C" transform="translate(289,634)"/>
<path d="M0,0 L14,1 L34,3 L47,6 L51,11 L52,15 L52,26 L50,32 L49,32 L47,23 L39,23 L38,22 L38,16 L32,14 L18,14 L13,19 L13,30 L18,41 L13,39 L8,34 L2,25 L-1,15 L-1,1 Z " fill="#F4F6F9" transform="translate(353,506)"/>
<path d="M0,0 L2,1 L-6,9 L-13,17 L-25,30 L-35,40 L-47,39 L-68,35 L-71,33 L-55,25 L-47,21 L-40,18 L-8,3 Z " fill="#00C7F4" transform="translate(719,229)"/>
<path d="M0,0 L8,0 L3,4 L-16,16 L-34,27 L-37,29 L-44,28 L-60,19 L-68,14 L-68,12 L-48,8 Z " fill="#00C8F3" transform="translate(833,380)"/>
<path d="M0,0 L14,0 L20,3 L21,9 L29,9 L31,12 L31,19 L28,25 L22,30 L17,32 L5,32 L-2,26 L-6,17 L-6,6 L-1,1 Z " fill="#0F2C4F" transform="translate(371,519)"/>
<path d="M0,0 L11,6 L17,9 L24,11 L52,11 L71,7 L81,3 L101,3 L121,5 L120,11 L117,10 L91,10 L71,14 L55,18 L31,18 L21,15 L5,7 L5,5 L1,3 Z " fill="#CCCCCE" transform="translate(494,719)"/>
<path d="M0,0 L8,0 L13,3 L17,11 L16,16 L-1,23 L-6,22 L-9,16 L-9,8 L-5,3 Z " fill="#F39A9B" transform="translate(286,575)"/>
<path d="M0,0 L13,0 L25,3 L35,9 L39,13 L39,15 L30,12 L21,9 L-5,9 L-19,13 L-30,19 L-28,14 L-21,8 L-12,3 Z " fill="#082448" transform="translate(527,467)"/>
<path d="M0,0 L5,2 L7,5 L4,6 L-3,14 L-12,19 L-20,21 L-41,21 L-44,19 L-26,18 L-10,12 L-3,7 Z " fill="#09274E" transform="translate(502,572)"/>
<path d="M0,0 L4,1 L3,6 L-16,15 L-19,14 L-20,9 Z " fill="#ECEFF1" transform="translate(303,593)"/>
<path d="M0,0 L3,1 L-14,14 L-32,27 L-42,34 L-46,33 L-27,19 L-17,12 L-3,2 Z " fill="#164471" transform="translate(603,198)"/>
<path d="M0,0 L2,0 L2,15 L-1,16 L-12,7 L-12,5 L-7,2 Z " fill="#E8D7DD" transform="translate(347,701)"/>
<path d="M0,0 L5,2 L13,8 L14,10 L14,17 L12,19 L8,18 L0,2 Z " fill="#10437E" transform="translate(333,640)"/>
<path d="M0,0 L2,1 L-1,6 L-17,15 L-35,28 L-40,32 L-42,31 L-30,21 L-11,7 Z " fill="#425B77" transform="translate(448,721)"/>
<path d="M0,0 L1,3 L3,4 L2,8 L-3,9 L-14,14 L-19,14 L-20,11 L-1,2 Z " fill="#1A354F" transform="translate(307,596)"/>
<path d="M0,0 L1,4 L3,5 L-17,14 L-22,12 L-22,9 L-16,8 L-1,2 Z " fill="#293C5E" transform="translate(303,588)"/>
<path d="M0,0 L25,0 L29,1 L29,3 L-6,3 L-5,1 Z " fill="#A2AFC0" transform="translate(428,559)"/>
<path d="M0,0 L4,1 L8,6 L18,11 L24,13 L24,14 L15,14 L6,10 L2,5 L0,5 L-2,7 L-2,2 Z " fill="#08274D" transform="translate(402,577)"/>
<path d="M0,0 L19,0 L16,1 L15,5 L1,5 L3,2 Z " fill="#1A3658" transform="translate(431,554)"/>
<path d="M0,0 L11,6 L17,9 L18,13 L12,11 L5,7 L5,5 L1,3 Z " fill="#D6D5D7" transform="translate(494,719)"/>
<path d="M0,0 L9,3 L16,3 L20,2 L20,5 L9,6 L-2,2 Z " fill="#0E3A6C" transform="translate(408,587)"/>
<path d="M0,0 L2,0 L1,6 L0,4 L-8,11 L-15,18 L-17,17 Z " fill="#1A3450" transform="translate(506,190)"/>
<path d="M0,0 L2,0 L3,4 L-8,9 L-6,5 L-2,1 Z " fill="#183556" transform="translate(455,717)"/>
<path d="M0,0 L2,1 L16,1 L12,3 L0,5 Z " fill="#B3B5B8" transform="translate(355,697)"/>
<path d="M0,0 L2,1 L-1,3 L-4,3 L-4,7 L-8,8 L-12,5 L-11,3 L-5,2 Z " fill="#424364" transform="translate(292,594)"/>
<path d="M0,0 L8,0 L12,1 L12,3 L-2,3 Z " fill="#8C98A9" transform="translate(445,559)"/>
<path d="M0,0 L2,1 L-7,7 L-9,7 L-9,5 L-11,4 Z " fill="#234F68" transform="translate(747,293)"/>
<path d="M0,0 L4,1 L2,3 L2,6 L-4,7 L-3,1 Z " fill="#1A3452" transform="translate(361,700)"/>
<path d="M0,0 L3,1 L-7,9 L-8,6 Z " fill="#0F4373" transform="translate(603,198)"/>
<path d="M0,0 L1,3 L3,4 L2,8 L-2,7 L-2,5 L-6,4 L-1,2 Z M-2,4 Z " fill="#364656" transform="translate(307,596)"/>
<path d="M0,0 L9,0 L7,3 L-1,3 Z " fill="#C0C7D1" transform="translate(436,559)"/>
<path d="M0,0 L8,0 L3,4 L1,5 L1,2 L-5,2 L-5,1 Z " fill="#0195C2" transform="translate(833,380)"/>
<path d="M0,0 L2,1 L-6,11 L-7,9 L-2,1 Z " fill="#09274D" transform="translate(442,326)"/>
<path d="M0,0 L1,2 L-2,9 L-6,11 L-8,12 L-6,8 Z " fill="#0E396B" transform="translate(486,227)"/>
<path d="M0,0 L3,1 L-2,5 L-6,8 L-8,7 Z " fill="#425872" transform="translate(427,735)"/>
<path d="M0,0 L4,0 L4,2 L-3,6 L-5,6 L-4,3 Z " fill="#203A58" transform="translate(434,730)"/>
<path d="M0,0 L1,0 L1,18 L-2,19 L-1,16 Z " fill="#D3903C" transform="translate(323,661)"/>
<path d="M0,0 L2,1 L-4,6 L-8,3 Z " fill="#0097C1" transform="translate(719,229)"/>
<path d="M0,0 L1,3 L-4,7 L-8,6 Z " fill="#16416F" transform="translate(565,225)"/>
<path d="M0,0 L10,5 L8,7 L5,7 L5,5 L1,3 Z " fill="#D0D0D5" transform="translate(494,719)"/>
<path d="M0,0 L5,0 L1,1 L1,4 L6,4 L6,5 L-2,7 L-1,1 Z " fill="#464E5C" transform="translate(340,698)"/>
<path d="M0,0 L9,3 L8,5 L-2,2 Z " fill="#0D3563" transform="translate(408,587)"/>
<path d="M0,0 L9,1 L7,3 L1,5 Z " fill="#01A2CF" transform="translate(850,481)"/>
<path d="M0,0 L10,1 L6,4 L3,5 L3,2 Z " fill="#324C6A" transform="translate(884,475)"/>
<path d="M0,0 L3,1 L0,4 L-2,4 L-7,8 L-5,4 Z " fill="#092851" transform="translate(536,706)"/>
<path d="M0,0 L8,0 L7,6 L5,5 L4,2 Z " fill="#BCBDC2" transform="translate(607,724)"/>
<path d="M0,0 L2,1 L-6,9 L-6,6 L-1,1 Z " fill="#2A445F" transform="translate(278,572)"/>
<path d="M0,0 L2,1 L-1,5 L-4,7 L-5,6 L-5,1 L-3,3 Z " fill="#0A2952" transform="translate(356,467)"/>
<path d="M0,0 L6,0 L4,3 L-6,2 L-6,1 Z " fill="#546781" transform="translate(871,365)"/>
<path d="M0,0 L2,1 L0,5 L3,6 L-4,5 L-3,2 Z " fill="#02ADDD" transform="translate(723,309)"/>
<path d="M0,0 L2,1 L-1,1 Z M-3,2 L-1,2 L-2,5 L-7,6 L-6,3 Z " fill="#0A2850" transform="translate(294,594)"/>
<path d="M0,0 L1,4 L-2,9 L-4,9 L-2,3 Z " fill="#0A5C87" transform="translate(597,228)"/>
<path d="M0,0 L2,1 L-1,5 L-8,3 L-7,1 Z " fill="#243242" transform="translate(338,700)"/>
<path d="M0,0 L4,0 L4,2 L9,3 L5,4 L-1,2 Z " fill="#08B5DC" transform="translate(649,261)"/>
<path d="M0,0 L4,1 L-3,5 L-2,1 Z " fill="#184A79" transform="translate(578,216)"/>
<path d="M0,0 L2,0 L0,6 L-1,4 L-5,5 Z " fill="#01A1CF" transform="translate(616,190)"/>
</svg>
