<?xml version="1.0" encoding="UTF-8"?>
<!-- Generator: visioncortex VTracer 0.6.12 -->
<svg version="1.1" xmlns="http://www.w3.org/2000/svg" width="1024" height="1024">
<path d="M0,0 L2,1 L-16,38 L-29,66 L-43,94 L-50,109 L-44,107 L-21,96 L9,83 L44,69 L84,54 L105,47 L109,48 L99,61 L85,78 L77,88 L66,101 L55,114 L48,122 L36,136 L24,149 L22,152 L33,151 L60,144 L106,130 L142,118 L175,107 L177,107 L176,114 L156,167 L140,179 L129,188 L119,196 L104,208 L92,217 L101,217 L143,213 L194,207 L235,201 L238,201 L236,205 L220,217 L204,229 L186,242 L175,250 L151,266 L118,288 L113,291 L121,293 L166,300 L213,307 L255,312 L254,315 L226,328 L199,341 L179,350 L145,365 L119,376 L122,378 L166,393 L201,404 L235,414 L246,417 L247,420 L219,432 L185,446 L162,455 L124,469 L104,476 L145,496 L178,511 L187,516 L186,518 L135,534 L111,541 L110,542 L132,555 L131,557 L95,564 L93,565 L100,569 L204,579 L232,582 L232,584 L212,593 L182,606 L151,620 L110,638 L94,645 L89,646 L71,645 L-29,635 L-88,629 L-129,625 L-237,614 L-273,611 L-391,599 L-495,589 L-508,587 L-508,585 L-467,570 L-421,553 L-374,536 L-349,527 L-348,526 L-358,520 L-365,511 L-368,505 L-369,499 L-369,487 L-366,475 L-360,465 L-357,461 L-358,455 L-364,444 L-370,432 L-371,428 L-371,420 L-368,414 L-363,409 L-355,405 L-348,404 L-339,407 L-333,414 L-321,442 L-315,455 L-306,457 L-286,457 L-269,453 L-256,448 L-246,441 L-245,440 L-262,431 L-279,419 L-286,412 L-294,402 L-301,387 L-303,378 L-303,367 L-302,363 L-302,356 L-304,341 L-304,314 L-298,283 L-292,261 L-283,235 L-264,196 L-250,172 L-237,152 L-224,133 L-211,116 L-199,100 L-186,84 L-177,73 L-165,59 L-158,51 L-146,38 L-135,27 L-131,26 L-133,37 L-144,72 L-154,101 L-151,100 L-131,86 L-118,77 L-79,51 L-64,41 L-47,30 L-22,14 L-5,3 Z " fill="#15457E" transform="translate(640,163)"/>
<path d="M0,0 L2,1 L-16,38 L-29,66 L-43,94 L-50,109 L-44,107 L-21,96 L9,83 L44,69 L84,54 L105,47 L109,48 L99,61 L85,78 L77,88 L66,101 L55,114 L48,122 L36,136 L24,149 L22,152 L33,151 L60,144 L99,132 L105,132 L100,137 L78,150 L67,154 L48,160 L28,166 L12,171 L2,175 L-14,181 L-35,191 L-35,188 L-11,164 L-10,162 L-8,162 L-6,158 L11,141 L18,133 L30,121 L32,118 L34,118 L36,114 L43,107 L50,99 L61,88 L68,80 L80,67 L67,72 L37,86 L22,93 L6,101 L-4,105 L-23,114 L-39,122 L-66,136 L-92,150 L-101,156 L-103,155 L-89,141 L-80,128 L-68,109 L-61,98 L-52,83 L-50,80 L-48,74 L-35,50 L-27,37 L-22,27 L-33,35 L-40,38 L-54,48 L-72,61 L-91,75 L-105,85 L-124,99 L-138,110 L-149,119 L-162,130 L-175,142 L-188,155 L-195,163 L-204,174 L-205,172 L-193,151 L-181,128 L-169,103 L-163,88 L-160,80 L-155,67 L-164,78 L-173,90 L-183,103 L-193,116 L-206,134 L-218,151 L-233,174 L-249,201 L-257,217 L-265,233 L-273,252 L-281,277 L-285,293 L-287,302 L-287,307 L-282,303 L-278,301 L-268,301 L-261,304 L-251,312 L-252,314 L-263,309 L-267,308 L-279,308 L-289,311 L-289,345 L-286,378 L-279,391 L-268,404 L-258,412 L-248,418 L-232,426 L-218,430 L-197,435 L-180,437 L-129,437 L-115,436 L-120,440 L-131,444 L-141,448 L-162,454 L-188,457 L-194,457 L-187,478 L-183,493 L-179,516 L-177,538 L-169,542 L-151,541 L-150,535 L-143,524 L-135,516 L-125,510 L-112,506 L-87,503 L-74,500 L-65,494 L-59,485 L-55,478 L-49,461 L-46,451 L-42,437 L-40,433 L-40,452 L-43,469 L-48,485 L-54,497 L-58,502 L-66,507 L-75,510 L-94,513 L-110,515 L-123,519 L-131,525 L-138,533 L-141,538 L-141,546 L-138,549 L-135,549 L-129,540 L-121,533 L-119,533 L-121,537 L-127,546 L-127,555 L-120,558 L-114,559 L-113,553 L-109,547 L-104,543 L-101,544 L-106,551 L-107,559 L-91,558 L-76,554 L-63,550 L-45,546 L-33,542 L-17,534 L-7,525 L1,515 L9,500 L15,482 L19,460 L20,448 L22,448 L23,458 L23,493 L21,505 L20,507 L19,530 L22,540 L28,547 L38,553 L54,557 L61,558 L57,514 L52,488 L47,471 L43,458 L34,431 L28,418 L24,408 L17,397 L13,392 L10,390 L10,388 L14,390 L23,394 L37,399 L24,384 L16,374 L12,371 L12,369 L24,372 L44,378 L74,387 L94,392 L99,393 L84,386 L56,373 L49,370 L49,368 L65,366 L91,360 L104,357 L125,351 L141,346 L150,343 L159,340 L162,340 L163,338 L170,337 L189,330 L202,326 L209,323 L217,320 L214,319 L165,315 L149,313 L126,312 L119,311 L95,310 L59,310 L33,311 L37,308 L75,289 L94,279 L120,265 L142,253 L151,247 L156,245 L177,232 L196,220 L199,218 L188,219 L170,222 L168,223 L138,227 L137,228 L124,229 L123,230 L97,234 L79,236 L59,239 L35,242 L29,242 L34,237 L51,224 L69,211 L87,198 L104,186 L118,176 L132,166 L138,162 L149,162 L156,163 L156,167 L140,179 L129,188 L119,196 L104,208 L92,217 L101,217 L143,213 L194,207 L235,201 L238,201 L236,205 L220,217 L204,229 L186,242 L175,250 L151,266 L118,288 L113,291 L121,293 L166,300 L213,307 L255,312 L254,315 L226,328 L199,341 L179,350 L145,365 L119,376 L122,378 L166,393 L201,404 L235,414 L246,417 L247,420 L219,432 L185,446 L162,455 L124,469 L104,476 L145,496 L178,511 L187,516 L186,518 L135,534 L111,541 L110,542 L132,555 L131,557 L95,564 L93,565 L100,569 L204,579 L232,582 L232,584 L212,593 L182,606 L151,620 L110,638 L94,645 L89,646 L71,645 L-29,635 L-88,629 L-129,625 L-237,614 L-273,611 L-391,599 L-495,589 L-508,587 L-508,585 L-467,570 L-421,553 L-374,536 L-349,527 L-348,526 L-358,520 L-365,511 L-368,505 L-369,499 L-369,487 L-366,475 L-360,465 L-357,461 L-358,455 L-364,444 L-370,432 L-371,428 L-371,420 L-368,414 L-363,409 L-355,405 L-348,404 L-339,407 L-333,414 L-321,442 L-315,455 L-306,457 L-286,457 L-269,453 L-256,448 L-246,441 L-245,440 L-262,431 L-279,419 L-286,412 L-294,402 L-301,387 L-303,378 L-303,367 L-302,363 L-302,356 L-304,341 L-304,314 L-298,283 L-292,261 L-283,235 L-264,196 L-250,172 L-237,152 L-224,133 L-211,116 L-199,100 L-186,84 L-177,73 L-165,59 L-158,51 L-146,38 L-135,27 L-131,26 L-133,37 L-144,72 L-154,101 L-151,100 L-131,86 L-118,77 L-79,51 L-64,41 L-47,30 L-22,14 L-5,3 Z " fill="#0E2849" transform="translate(640,163)"/>
<path d="M0,0 L5,1 L23,1 L32,17 L33,20 L24,22 L8,30 L-33,49 L-32,53 L-31,58 L-35,63 L-20,64 L12,68 L43,71 L89,75 L97,80 L100,81 L118,81 L122,80 L136,80 L179,86 L230,92 L242,93 L262,93 L271,89 L288,81 L307,71 L330,59 L343,53 L344,48 L339,46 L331,42 L329,40 L329,33 L341,33 L354,35 L395,38 L399,39 L433,42 L445,42 L446,43 L550,53 L578,56 L578,58 L558,67 L528,80 L497,94 L456,112 L440,119 L435,120 L417,119 L317,109 L258,103 L217,99 L109,88 L73,85 L-45,73 L-149,63 L-162,61 L-162,59 L-121,44 L-75,27 L-28,10 Z " fill="#E3DFDE" transform="translate(294,689)"/>
<path d="M0,0 L31,0 L50,4 L66,12 L63,15 L41,28 L23,41 L8,53 L17,47 L32,36 L55,23 L72,15 L83,12 L91,12 L94,18 L102,24 L112,29 L119,31 L147,31 L166,27 L176,23 L196,23 L216,25 L216,31 L222,36 L222,38 L204,46 L185,56 L161,68 L152,74 L133,72 L101,67 L91,65 L67,62 L56,60 L43,59 L13,59 L7,57 L-11,56 L-27,52 L-37,50 L-53,49 L-71,47 L-99,44 L-115,43 L-127,41 L-126,39 L-93,24 L-74,15 L-66,14 L-54,25 L-51,27 L-46,27 L-45,26 L-44,8 L-21,3 Z " fill="#DBDADA" transform="translate(399,699)"/>
<path d="M0,0 L31,0 L50,4 L66,12 L63,15 L41,28 L23,41 L8,53 L4,55 L-7,47 L-17,42 L-28,38 L-37,36 L-51,35 L-109,35 L-110,32 L-83,19 L-74,15 L-66,14 L-54,25 L-51,27 L-46,27 L-45,26 L-44,8 L-21,3 Z " fill="#FBF8F6" transform="translate(399,699)"/>
<path d="M0,0 L8,0 L11,6 L15,12 L17,13 L17,15 L22,17 L33,22 L43,25 L67,25 L83,21 L103,17 L129,17 L131,19 L128,22 L119,25 L85,42 L65,53 L58,53 L40,48 L16,42 L4,39 L-18,35 L-47,35 L-64,38 L-71,40 L-66,35 L-51,24 L-28,11 L-11,3 Z " fill="#FCF9F7" transform="translate(482,711)"/>
<path d="M0,0 L7,0 L15,7 L20,13 L22,17 L22,29 L17,39 L9,46 L-7,53 L-25,58 L-41,60 L-59,60 L-64,50 L-63,45 L-60,43 L-58,39 L-58,30 L-62,24 L-70,17 L-73,15 L-73,13 L-42,12 L-22,8 L-10,4 Z " fill="#15457E" transform="translate(410,619)"/>
<path d="M0,0 L2,0 L1,7 L-18,57 L-50,53 L-93,45 L-96,44 L-95,41 L-72,27 L-72,24 L-36,12 Z " fill="#06CFF8" transform="translate(815,270)"/>
<path d="M0,0 L5,1 L12,16 L25,46 L40,80 L42,86 L42,94 L34,97 L31,99 L26,99 L16,80 L16,75 L17,74 L17,55 L13,49 L5,44 L-3,40 L-10,25 L-17,10 L-17,8 L-1,1 Z " fill="#F7A844" transform="translate(305,603)"/>
<path d="M0,0 L5,1 L8,10 L8,21 L4,31 L-5,41 L-15,46 L-20,48 L-23,47 L-19,42 L-17,38 L-17,29 L-19,26 L-27,26 L-29,23 L-30,18 L-38,15 L-50,15 L-58,19 L-62,24 L-64,28 L-64,36 L-62,41 L-69,35 L-73,28 L-75,21 L-75,12 L-72,9 L-44,7 L-3,1 Z " fill="#F6F8FB" transform="translate(564,509)"/>
<path d="M0,0 L10,1 L45,6 L73,12 L86,15 L85,17 L55,27 L28,34 L24,32 L14,19 L3,5 Z " fill="#00CDF7" transform="translate(768,569)"/>
<path d="M0,0 L19,0 L30,2 L36,5 L37,6 L37,14 L35,14 L33,19 L26,27 L20,32 L15,34 L4,34 L-6,28 L-13,20 L-17,14 L-17,6 L-11,2 Z " fill="#092548" transform="translate(431,554)"/>
<path d="M0,0 L12,0 L21,4 L23,12 L31,11 L34,15 L34,24 L29,32 L23,36 L2,36 L-8,31 L-15,22 L-15,14 L-10,6 L-5,2 Z " fill="#102D51" transform="translate(514,523)"/>
<path d="M0,0 L2,0 L0,6 L-9,22 L-22,45 L-25,51 L-44,50 L-63,48 L-63,46 L-48,36 L-30,23 L-11,9 Z " fill="#00CCF7" transform="translate(616,190)"/>
<path d="M0,0 L14,0 L58,4 L73,5 L78,6 L76,8 L65,12 L54,16 L36,22 L27,26 L22,26 L13,15 L4,6 Z " fill="#00CAF6" transform="translate(781,476)"/>
<path d="M0,0 L2,3 L4,15 L4,26 L-8,25 L-41,25 L-61,28 L-82,33 L-85,33 L-85,23 L-62,21 L-38,16 L-25,12 L-9,5 Z " fill="#F0EFEF" transform="translate(440,669)"/>
<path d="M0,0 L3,4 L8,12 L23,21 L26,24 L26,30 L22,32 L12,32 L4,29 L4,31 L8,33 L12,35 L26,36 L26,43 L22,47 L11,47 L3,44 L-2,40 L-8,29 L-8,15 L-5,6 Z " fill="#12427C" transform="translate(289,634)"/>
<path d="M0,0 L14,1 L34,3 L47,6 L51,11 L52,15 L52,26 L50,32 L49,32 L47,23 L39,23 L38,22 L38,16 L32,14 L18,14 L13,19 L13,30 L18,41 L13,39 L8,34 L2,25 L-1,15 L-1,1 Z " fill="#F4F6F9" transform="translate(353,506)"/>
<path d="M0,0 L2,1 L-6,9 L-13,17 L-25,30 L-35,40 L-47,39 L-68,35 L-71,33 L-55,25 L-47,21 L-40,18 L-8,3 Z " fill="#00C7F4" transform="translate(719,229)"/>
<path d="M0,0 L8,0 L3,4 L-16,16 L-34,27 L-37,29 L-44,28 L-60,19 L-68,14 L-68,12 L-56,10 L-55,9 L-25,5 L-17,3 Z " fill="#00C9F4" transform="translate(833,380)"/>
<path d="M0,0 L14,0 L20,3 L21,9 L29,9 L31,12 L31,19 L28,25 L22,30 L17,32 L5,32 L-2,26 L-6,17 L-6,6 L-1,1 Z " fill="#0F2C4F" transform="translate(371,519)"/>
<path d="M0,0 L11,6 L17,9 L24,11 L52,11 L71,7 L81,3 L101,3 L121,5 L120,11 L117,10 L91,10 L71,14 L55,18 L31,18 L21,15 L5,7 L5,5 L1,3 Z " fill="#CCCCCE" transform="translate(494,719)"/>
<path d="M0,0 L8,0 L13,3 L17,11 L16,16 L-1,23 L-6,22 L-9,16 L-9,8 L-5,3 Z " fill="#F39A9B" transform="translate(286,575)"/>
<path d="M0,0 L13,0 L25,3 L35,9 L39,13 L39,15 L30,12 L21,9 L-5,9 L-19,13 L-30,19 L-28,14 L-21,8 L-12,3 Z " fill="#082448" transform="translate(527,467)"/>
<path d="M0,0 L5,2 L7,5 L4,6 L-3,14 L-12,19 L-20,21 L-41,21 L-44,19 L-26,18 L-10,12 L-3,7 Z " fill="#09274E" transform="translate(502,572)"/>
<path d="M0,0 L10,0 L17,3 L27,11 L26,13 L15,8 L11,7 L-1,7 L-8,8 L-4,2 Z " fill="#082549" transform="translate(362,464)"/>
<path d="M0,0 L4,1 L3,6 L-16,15 L-19,14 L-20,9 Z " fill="#ECEFF1" transform="translate(303,593)"/>
<path d="M0,0 L3,1 L-14,14 L-32,27 L-42,34 L-46,33 L-27,19 L-17,12 L-3,2 Z " fill="#164471" transform="translate(603,198)"/>
<path d="M0,0 L2,0 L2,15 L-1,16 L-12,7 L-12,5 L-7,2 Z " fill="#E8D7DD" transform="translate(347,701)"/>
<path d="M0,0 L5,2 L13,8 L14,10 L14,17 L12,19 L8,18 L0,2 Z " fill="#10437E" transform="translate(333,640)"/>
<path d="M0,0 L2,1 L-1,6 L-17,15 L-35,28 L-40,32 L-42,31 L-30,21 L-11,7 Z " fill="#425B77" transform="translate(448,721)"/>
<path d="M0,0 L1,3 L3,4 L2,8 L-3,9 L-14,14 L-19,14 L-20,11 L-1,2 Z " fill="#1A354F" transform="translate(307,596)"/>
<path d="M0,0 L1,4 L3,5 L-17,14 L-22,12 L-22,9 L-16,8 L-1,2 Z " fill="#293C5E" transform="translate(303,588)"/>
<path d="M0,0 L25,0 L29,1 L29,3 L-6,3 L-5,1 Z " fill="#A2AFC0" transform="translate(428,559)"/>
<path d="M0,0 L4,1 L8,6 L18,11 L24,13 L24,14 L15,14 L6,10 L2,5 L0,5 L-2,7 L-2,2 Z " fill="#08274D" transform="translate(402,577)"/>
<path d="M0,0 L2,0 L0,11 L-2,14 L-1,5 L-9,12 L-16,19 L-19,18 L-2,1 Z " fill="#46586F" transform="translate(507,189)"/>
<path d="M0,0 L19,0 L16,1 L15,5 L1,5 L3,2 Z " fill="#1A3658" transform="translate(431,554)"/>
<path d="M0,0 L11,6 L17,9 L18,13 L12,11 L5,7 L5,5 L1,3 Z " fill="#D6D5D7" transform="translate(494,719)"/>
<path d="M0,0 L9,3 L16,3 L20,2 L20,5 L9,6 L-2,2 Z " fill="#0E3A6C" transform="translate(408,587)"/>
<path d="M0,0 L15,1 L14,4 L7,6 L7,3 L0,1 Z " fill="#748497" transform="translate(880,474)"/>
<path d="M0,0 L2,1 L16,1 L12,3 L0,5 Z " fill="#B3B5B8" transform="translate(355,697)"/>
<path d="M0,0 L2,1 L-1,3 L-4,3 L-4,7 L-8,8 L-12,5 L-11,3 L-5,2 Z " fill="#424364" transform="translate(292,594)"/>
<path d="M0,0 L8,0 L12,1 L12,3 L-2,3 Z " fill="#8C98A9" transform="translate(445,559)"/>
<path d="M0,0 L5,2 L1,5 L-6,8 L-4,4 Z " fill="#173556" transform="translate(453,718)"/>
<path d="M0,0 L4,1 L1,4 L1,2 L-13,7 L-17,6 Z " fill="#9AA2AE" transform="translate(745,210)"/>
<path d="M0,0 L2,0 L0,11 L-2,14 L-2,5 L-5,4 Z M-2,3 Z " fill="#808D9B" transform="translate(507,189)"/>
<path d="M0,0 L4,1 L2,3 L2,6 L-4,7 L-3,1 Z " fill="#1A3452" transform="translate(361,700)"/>
<path d="M0,0 L2,0 L1,7 L0,3 L-8,5 L-12,4 Z " fill="#74E3F7" transform="translate(815,270)"/>
<path d="M0,0 L3,1 L-7,9 L-8,6 Z " fill="#0F4373" transform="translate(603,198)"/>
<path d="M0,0 L1,3 L3,4 L2,8 L-2,7 L-2,5 L-6,4 L-1,2 Z M-2,4 Z " fill="#364656" transform="translate(307,596)"/>
<path d="M0,0 L9,0 L7,3 L-1,3 Z " fill="#C0C7D1" transform="translate(436,559)"/>
<path d="M0,0 L8,0 L3,4 L1,5 L1,2 L-5,2 L-5,1 Z " fill="#0195C2" transform="translate(833,380)"/>
<path d="M0,0 L3,1 L-2,5 L-6,8 L-8,7 Z " fill="#425872" transform="translate(427,735)"/>
<path d="M0,0 L4,0 L4,2 L-3,6 L-5,6 L-4,3 Z " fill="#203A58" transform="translate(434,730)"/>
<path d="M0,0 L1,0 L1,18 L-2,19 L-1,16 Z " fill="#D3903C" transform="translate(323,661)"/>
<path d="M0,0 L2,1 L-2,6 L-7,9 L-5,5 Z " fill="#66778B" transform="translate(278,571)"/>
<path d="M0,0 L1,2 L-1,7 L-5,9 L-7,10 L-5,6 Z " fill="#0E3A6E" transform="translate(485,229)"/>
<path d="M0,0 L2,1 L-4,6 L-8,3 Z " fill="#0097C1" transform="translate(719,229)"/>
<path d="M0,0 L1,3 L-4,7 L-8,6 Z " fill="#16416F" transform="translate(565,225)"/>
<path d="M0,0 L10,5 L8,7 L5,7 L5,5 L1,3 Z " fill="#D0D0D5" transform="translate(494,719)"/>
<path d="M0,0 L5,0 L1,1 L1,4 L6,4 L6,5 L-2,7 L-1,1 Z " fill="#464E5C" transform="translate(340,698)"/>
<path d="M0,0 L9,3 L8,5 L-2,2 Z " fill="#0D3563" transform="translate(408,587)"/>
<path d="M0,0 L9,1 L7,3 L1,5 Z " fill="#01A2CF" transform="translate(850,481)"/>
<path d="M0,0 L6,2 L6,4 L-4,4 L-4,3 L1,3 Z " fill="#59697F" transform="translate(731,728)"/>
<path d="M0,0 L3,1 L0,4 L-2,4 L-7,8 L-5,4 Z " fill="#092851" transform="translate(536,706)"/>
<path d="M0,0 L8,0 L7,6 L5,5 L4,2 Z " fill="#BCBDC2" transform="translate(607,724)"/>
<path d="M0,0 L2,1 L-1,5 L-4,7 L-5,6 L-5,1 L-3,3 Z " fill="#0A2952" transform="translate(356,467)"/>
<path d="M0,0 L2,1 L0,5 L3,6 L-4,5 L-3,2 Z " fill="#02ADDD" transform="translate(723,309)"/>
<path d="M0,0 L2,1 L-1,1 Z M-3,2 L-1,2 L-2,5 L-7,6 L-6,3 Z " fill="#0A2850" transform="translate(294,594)"/>
<path d="M0,0 L1,4 L-2,9 L-4,9 L-2,3 Z " fill="#0A5C87" transform="translate(597,228)"/>
<path d="M0,0 L2,1 L-1,7 L-2,4 L-5,3 Z " fill="#8894A5" transform="translate(640,163)"/>
<path d="M0,0 L2,1 L-1,5 L-8,3 L-7,1 Z " fill="#243242" transform="translate(338,700)"/>
<path d="M0,0 L5,2 L4,4 L-1,5 Z " fill="#8390A1" transform="translate(822,677)"/>
<path d="M0,0 L1,4 L3,5 L3,7 L-2,9 Z " fill="#919AA6" transform="translate(485,260)"/>
<path d="M0,0 L4,0 L4,2 L9,3 L5,4 L-1,2 Z " fill="#08B5DC" transform="translate(649,261)"/>
<path d="M0,0 L4,1 L-3,5 L-2,1 Z " fill="#184A79" transform="translate(578,216)"/>
<path d="M0,0 L2,0 L0,6 L-1,4 L-5,5 Z " fill="#01A1CF" transform="translate(616,190)"/>
</svg>
